<svg width="200" height="65" viewBox="0 0 200 65" fill="none" xmlns="http://www.w3.org/2000/svg">
<g clip-path="url(#clip0_542_2663)">
<path d="M109.523 26.1425C105.988 26.1425 103.312 23.3107 103.312 19.5824C103.312 15.9184 105.988 13.1187 109.523 13.1187C111.495 13.1187 113.66 14.2313 115.127 16.015L118.405 12.1304C116.175 9.8364 112.736 8.37451 109.426 8.37451C102.646 8.37451 97.5195 13.2153 97.5195 19.6467C97.5195 26.1747 102.517 31.1075 109.238 31.1075C112.52 31.1075 116.051 29.4847 118.442 27.0298L115.132 23.5267C113.569 25.122 111.403 26.1425 109.523 26.1425Z" fill="white"/>
<path d="M128.909 31.043C134.513 31.043 138.274 27.54 138.274 22.2532C138.274 16.9665 134.518 13.4956 128.909 13.4956C123.273 13.4956 119.517 16.9665 119.517 22.2532C119.517 27.5446 123.273 31.043 128.909 31.043ZM128.909 17.8629C131.171 17.8629 132.73 19.6788 132.73 22.3222C132.73 24.9977 131.171 26.7814 128.909 26.7814C126.615 26.7814 125.057 24.9977 125.057 22.3222C125.057 19.6788 126.62 17.8629 128.909 17.8629Z" fill="white"/>
<path d="M148.148 31.0751C150.346 31.0751 152.097 30.1832 153.307 28.5926V30.8544H158.814V7.22949H153.307V15.955C152.097 14.3643 150.282 13.4725 148.02 13.4725C143.275 13.4725 140.122 16.9433 140.122 22.1979C140.126 27.5122 143.308 31.0751 148.148 31.0751ZM149.486 17.8628C151.78 17.8628 153.307 19.6787 153.307 22.322C153.307 24.9654 151.78 26.8135 149.486 26.8135C147.192 26.8135 145.666 24.9654 145.634 22.322C145.666 19.6787 147.192 17.8628 149.486 17.8628Z" fill="white"/>
<path d="M171.01 31.0428C174.164 31.0428 176.743 29.9257 178.494 28.0179L175.598 25.186C174.454 26.3307 172.987 26.9376 171.493 26.9376C169.456 26.9376 167.99 25.7929 167.447 23.7517H179.515C179.897 17.4812 176.904 13.5 170.854 13.5C165.535 13.5 161.908 17.0031 161.908 22.322C161.903 27.5444 165.406 31.0428 171.01 31.0428ZM170.914 17.3203C172.886 17.3203 174.224 18.6902 174.224 20.7911H167.346C167.696 18.7224 169.001 17.3203 170.914 17.3203Z" fill="white"/>
<path d="M194.497 7.22949V15.955C193.288 14.3643 191.472 13.4725 189.21 13.4725C184.466 13.4725 181.312 16.9433 181.312 22.1979C181.312 27.5168 184.498 31.0797 189.335 31.0797C191.532 31.0797 193.284 30.1878 194.493 28.5972V30.859H200V7.2341H194.497V7.22949ZM190.677 26.8089C188.383 26.8089 186.857 24.9608 186.825 22.3174C186.857 19.6741 188.383 17.8582 190.677 17.8582C192.971 17.8582 194.497 19.6741 194.497 22.3174C194.497 24.9608 192.971 26.8089 190.677 26.8089Z" fill="white"/>
<path d="M103.271 47.4041H114.511V44.9538H103.271V37.6305H115.849V35.1802H100.724V57.4673H116.263V55.0446H103.271V47.4041Z" fill="white"/>
<path d="M122.299 44.9539C122.299 43.3954 123.733 42.7242 125.609 42.7242C127.167 42.7242 128.854 43.2667 130.16 44.0942L131.116 42.122C129.714 41.1658 127.774 40.5957 125.765 40.5957C122.708 40.5957 119.94 41.9335 119.94 45.1469C119.908 51.1003 129.3 49.0315 129.204 53.0771C129.171 54.732 127.581 55.4676 125.604 55.4676C123.632 55.4676 121.466 54.6723 120.032 53.3345L119.076 55.2148C120.667 56.741 123.121 57.5685 125.507 57.5685C128.721 57.5685 131.654 56.1066 131.654 52.792C131.658 46.7697 122.299 48.6776 122.299 44.9539Z" fill="white"/>
<path d="M141.138 55.1737C139.703 55.1737 138.908 54.4106 138.908 52.3694V43.2302H144.227V41.1937L138.908 41.2259V36.7988H136.458V41.2259H134.035V43.2348H136.458V52.8199C136.458 56.1299 138.274 57.5964 140.724 57.5964C142.062 57.5642 143.335 57.1183 144.512 56.323L143.813 54.314C142.889 54.8887 141.997 55.1737 141.138 55.1737Z" fill="white"/>
<path d="M154.562 40.5913C151.697 40.5913 149.882 41.4188 147.716 42.8531L148.769 44.669C150.521 43.4599 152.24 42.7566 154.083 42.7566C157.044 42.7566 158.575 44.2185 158.575 46.6734V47.6618H153.067C149.118 47.6939 146.797 49.5374 146.797 52.4704C146.797 55.3666 149.027 57.5963 152.497 57.5963C155.173 57.5963 157.306 56.7044 158.644 54.8885V57.4675H161.067L161.034 46.3883C160.998 42.7888 158.704 40.5913 154.562 40.5913ZM158.607 51.6705C157.968 53.9967 155.803 55.4264 152.971 55.4264C150.613 55.4264 149.118 54.2173 149.118 52.3693C149.118 50.5212 150.585 49.6615 153.385 49.6615H158.607V51.6705Z" fill="white"/>
<path d="M171.291 55.1737C169.856 55.1737 169.061 54.4106 169.061 52.3694V43.2302H174.38V41.1937L169.061 41.2259V36.7988H166.611V41.2259H164.188V43.2348H166.611V52.8199C166.611 56.1299 168.427 57.5964 170.877 57.5964C172.215 57.5642 173.488 57.1183 174.665 56.323L173.966 54.314C173.042 54.8887 172.15 55.1737 171.291 55.1737Z" fill="white"/>
<path d="M184.53 40.6237C179.657 40.6237 176.219 44.0946 176.219 49.0963C176.219 54.0934 179.625 57.5643 184.563 57.5643C187.367 57.5643 189.721 56.5483 191.316 54.7646L189.946 53.3027C188.64 54.6727 186.824 55.4036 184.756 55.4036C181.51 55.4036 179.12 53.3349 178.674 50.0525H192.369C192.621 44.3474 189.946 40.5915 184.53 40.6237ZM178.674 48.0114C179.055 44.8255 181.349 42.7568 184.535 42.7568C187.817 42.7568 189.978 44.7933 190.139 48.0114H178.674Z" fill="white"/>
<path d="M31.0767 61.2326L42.4961 2.60946C42.8271 0.9177 44.22 -0.231592 45.6084 0.0396418C46.799 0.2695 47.599 1.46936 47.599 2.8715C47.599 3.10596 47.576 3.3496 47.53 3.59325L36.1106 62.2164C35.7796 63.9082 34.3867 65.0575 32.9983 64.7862C31.8077 64.5564 31.0078 63.3565 31.0078 61.9544C31.0078 61.7199 31.0307 61.4763 31.0767 61.2326Z" fill="url(#paint0_linear_542_2663)"/>
<path d="M36.3223 11.9462C36.0694 13.2518 34.9247 14.1942 33.5961 14.1942H21.5745L21.524 14.1988L5.6821 32.4082L21.5516 50.6498L21.5745 50.6268H25.4178C27.1647 50.6268 28.4795 52.2221 28.1439 53.9368C27.8911 55.2424 26.7464 56.1848 25.4178 56.1848H21.5745C20.085 56.1848 18.6369 55.5964 17.6026 54.5666L1.48489 36.0492C0.52868 35.0562 0 33.769 0 32.4082C0 31.0475 0.524083 29.7603 1.48489 28.7719L17.4647 10.4016L17.6072 10.2499C18.6461 9.22468 20.0942 8.63623 21.5791 8.63623H33.6007C35.3431 8.63623 36.6579 10.2315 36.3223 11.9462Z" fill="url(#paint1_linear_542_2663)"/>
<path d="M61.0087 10.2545L66.1989 16.217H73.867C74.8968 16.217 75.7335 17.0537 75.7335 18.0835V20.2809C75.7335 21.3107 74.8968 22.1474 73.867 22.1474H71.3569L77.1264 28.7765C78.0826 29.7695 78.6113 31.0567 78.6113 32.4128C78.6113 33.7736 78.0872 35.0608 77.1264 36.0492L61.1465 54.4149L61.0041 54.5666C59.9652 55.5964 58.5171 56.1848 57.0276 56.1848H45.0106C43.2636 56.1848 41.9488 54.5896 42.2798 52.8749C42.5327 51.5693 43.6774 50.6268 45.0106 50.6268L57.0827 50.6222L72.9246 32.4128L57.0598 14.1713L57.0322 14.1942H53.1889C51.442 14.1942 50.1272 12.599 50.4628 10.8843C50.7156 9.57866 51.8604 8.63623 53.1889 8.63623H57.0322C58.5217 8.63623 59.9698 9.22928 61.0087 10.2545Z" fill="url(#paint2_linear_542_2663)"/>
<path d="M56.3286 27.016L60.2546 31.5258C60.489 31.7694 60.6177 32.082 60.6177 32.413C60.6177 32.744 60.489 33.0566 60.2546 33.3003L56.3608 37.7733L56.3286 37.8101C56.0757 38.0584 55.7218 38.2055 55.3586 38.2055H52.6738C52.0302 38.2055 51.5107 37.686 51.5107 37.0424V27.7837C51.5107 27.1401 52.0302 26.6206 52.6738 26.6206H55.3586C55.7218 26.6206 56.0757 26.7631 56.3286 27.016Z" fill="url(#paint3_linear_542_2663)"/>
<path d="M24.3144 37.7825L19.5471 35.6586C19.3494 35.5713 19.2207 35.3736 19.2207 35.1575V29.6639C19.2207 29.4478 19.3494 29.2502 19.5471 29.1628L24.3144 27.0389C24.6178 26.9056 24.958 26.9056 25.2614 27.0389L30.0287 29.1628C30.2263 29.2502 30.3551 29.4478 30.3551 29.6639V35.1575C30.3551 35.3736 30.2263 35.5713 30.0287 35.6586L25.2614 37.7825C24.958 37.9204 24.6132 37.9204 24.3144 37.7825Z" fill="url(#paint4_linear_542_2663)"/>
</g>
<defs>
<linearGradient id="paint0_linear_542_2663" x1="-17.6428" y1="66.1756" x2="83.7457" y2="6.06222" gradientUnits="userSpaceOnUse">
<stop offset="2.29095e-07" stop-color="#6317F7"/>
<stop offset="1" stop-color="#18FFFF"/>
</linearGradient>
<linearGradient id="paint1_linear_542_2663" x1="-21.859" y1="59.0643" x2="79.5296" y2="-1.0492" gradientUnits="userSpaceOnUse">
<stop offset="2.29095e-07" stop-color="#6317F7"/>
<stop offset="1" stop-color="#18FFFF"/>
</linearGradient>
<linearGradient id="paint2_linear_542_2663" x1="-13.4267" y1="73.2869" x2="87.9619" y2="13.1735" gradientUnits="userSpaceOnUse">
<stop offset="2.29095e-07" stop-color="#6317F7"/>
<stop offset="1" stop-color="#18FFFF"/>
</linearGradient>
<linearGradient id="paint3_linear_542_2663" x1="-13.8082" y1="72.6439" x2="87.5803" y2="12.5305" gradientUnits="userSpaceOnUse">
<stop offset="2.29095e-07" stop-color="#6317F7"/>
<stop offset="1" stop-color="#18FFFF"/>
</linearGradient>
<linearGradient id="paint4_linear_542_2663" x1="-21.4187" y1="59.8072" x2="79.9699" y2="-0.306241" gradientUnits="userSpaceOnUse">
<stop offset="2.29095e-07" stop-color="#6317F7"/>
<stop offset="1" stop-color="#18FFFF"/>
</linearGradient>
<clipPath id="clip0_542_2663">
<rect width="200" height="65" fill="white"/>
</clipPath>
</defs>
</svg>
