<svg width="200" height="65" viewBox="0 0 200 65" fill="none" xmlns="http://www.w3.org/2000/svg">
<path d="M109.523 26.1423C105.988 26.1423 103.312 23.3105 103.312 19.5822C103.312 15.9182 105.988 13.1185 109.523 13.1185C111.495 13.1185 113.66 14.2311 115.127 16.0148L118.405 12.1302C116.175 9.83616 112.736 8.37427 109.426 8.37427C102.646 8.37427 97.5198 13.2151 97.5198 19.6465C97.5198 26.1745 102.517 31.1073 109.238 31.1073C112.52 31.1073 116.051 29.4845 118.442 27.0296L115.132 23.5265C113.569 25.1218 111.403 26.1423 109.523 26.1423Z" fill="#323260"/>
<path d="M128.909 31.043C134.513 31.043 138.274 27.54 138.274 22.2532C138.274 16.9665 134.518 13.4956 128.909 13.4956C123.273 13.4956 119.517 16.9665 119.517 22.2532C119.517 27.5446 123.273 31.043 128.909 31.043ZM128.909 17.8629C131.171 17.8629 132.73 19.6788 132.73 22.3222C132.73 24.9977 131.171 26.7814 128.909 26.7814C126.615 26.7814 125.057 24.9977 125.057 22.3222C125.057 19.6788 126.62 17.8629 128.909 17.8629Z" fill="#323260"/>
<path d="M148.148 31.0752C150.346 31.0752 152.097 30.1833 153.307 28.5927V30.8545H158.814V7.22961H153.307V15.9551C152.097 14.3644 150.282 13.4726 148.02 13.4726C143.275 13.4726 140.122 16.9434 140.122 22.198C140.126 27.5123 143.308 31.0752 148.148 31.0752ZM149.486 17.8629C151.78 17.8629 153.307 19.6788 153.307 22.3221C153.307 24.9655 151.78 26.8136 149.486 26.8136C147.192 26.8136 145.666 24.9655 145.634 22.3221C145.666 19.6788 147.192 17.8629 149.486 17.8629Z" fill="#323260"/>
<path d="M171.01 31.0429C174.164 31.0429 176.743 29.9258 178.494 28.018L175.598 25.1861C174.454 26.3308 172.987 26.9377 171.493 26.9377C169.456 26.9377 167.99 25.793 167.447 23.7518H179.515C179.897 17.4813 176.904 13.5001 170.854 13.5001C165.535 13.5001 161.908 17.0032 161.908 22.3221C161.903 27.5445 165.406 31.0429 171.01 31.0429ZM170.914 17.3204C172.886 17.3204 174.224 18.6903 174.224 20.7912H167.346C167.696 18.7225 169.001 17.3204 170.914 17.3204Z" fill="#323260"/>
<path d="M194.497 7.22961V15.9551C193.288 14.3644 191.472 13.4726 189.21 13.4726C184.466 13.4726 181.312 16.9434 181.312 22.198C181.312 27.5169 184.498 31.0798 189.335 31.0798C191.532 31.0798 193.284 30.1879 194.493 28.5973V30.8591H200V7.23422H194.497V7.22961ZM190.677 26.809C188.383 26.809 186.857 24.9609 186.825 22.3175C186.857 19.6742 188.383 17.8583 190.677 17.8583C192.971 17.8583 194.497 19.6742 194.497 22.3175C194.497 24.9609 192.971 26.809 190.677 26.809Z" fill="#323260"/>
<path d="M103.271 47.4043H114.511V44.954H103.271V37.6307H115.849V35.1804H100.724V57.4675H116.263V55.0448H103.271V47.4043Z" fill="#323260"/>
<path d="M122.299 44.9541C122.299 43.3956 123.733 42.7244 125.609 42.7244C127.167 42.7244 128.854 43.2669 130.16 44.0944L131.116 42.1222C129.714 41.166 127.774 40.5959 125.765 40.5959C122.708 40.5959 119.94 41.9337 119.94 45.1471C119.908 51.1005 129.3 49.0317 129.204 53.0773C129.171 54.7322 127.581 55.4678 125.604 55.4678C123.632 55.4678 121.466 54.6725 120.032 53.3347L119.076 55.215C120.667 56.7412 123.121 57.5687 125.507 57.5687C128.721 57.5687 131.654 56.1068 131.654 52.7922C131.658 46.7699 122.299 48.6778 122.299 44.9541Z" fill="#323260"/>
<path d="M141.138 55.1735C139.703 55.1735 138.908 54.4104 138.908 52.3692V43.23H144.227V41.1935L138.908 41.2257V36.7986H136.458V41.2257H134.035V43.2346H136.458V52.8197C136.458 56.1297 138.274 57.5962 140.724 57.5962C142.062 57.564 143.335 57.1181 144.512 56.3228L143.813 54.3138C142.889 54.8885 141.997 55.1735 141.138 55.1735Z" fill="#323260"/>
<path d="M154.562 40.5913C151.697 40.5913 149.882 41.4188 147.716 42.8531L148.769 44.669C150.521 43.4599 152.24 42.7566 154.083 42.7566C157.044 42.7566 158.575 44.2185 158.575 46.6734V47.6618H153.067C149.118 47.6939 146.797 49.5374 146.797 52.4704C146.797 55.3666 149.027 57.5963 152.497 57.5963C155.173 57.5963 157.306 56.7044 158.644 54.8885V57.4675H161.067L161.034 46.3883C160.998 42.7888 158.704 40.5913 154.562 40.5913ZM158.607 51.6705C157.968 53.9967 155.803 55.4264 152.971 55.4264C150.613 55.4264 149.118 54.2173 149.118 52.3693C149.118 50.5212 150.585 49.6615 153.385 49.6615H158.607V51.6705Z" fill="#323260"/>
<path d="M171.291 55.1735C169.856 55.1735 169.061 54.4104 169.061 52.3692V43.23H174.38V41.1935L169.061 41.2257V36.7986H166.611V41.2257H164.188V43.2346H166.611V52.8197C166.611 56.1297 168.427 57.5962 170.877 57.5962C172.215 57.564 173.488 57.1181 174.665 56.3228L173.966 54.3138C173.042 54.8885 172.15 55.1735 171.291 55.1735Z" fill="#323260"/>
<path d="M184.53 40.6235C179.657 40.6235 176.219 44.0944 176.219 49.0961C176.219 54.0932 179.625 57.5641 184.563 57.5641C187.367 57.5641 189.721 56.5481 191.316 54.7644L189.946 53.3025C188.64 54.6725 186.824 55.4034 184.756 55.4034C181.51 55.4034 179.12 53.3347 178.674 50.0523H192.369C192.621 44.3472 189.946 40.5913 184.53 40.6235ZM178.674 48.0112C179.055 44.8253 181.349 42.7566 184.535 42.7566C187.817 42.7566 189.978 44.7931 190.139 48.0112H178.674Z" fill="#323260"/>
<path d="M31.077 61.2326L42.4964 2.60946C42.8274 0.9177 44.2203 -0.231592 45.6087 0.0396417C46.7993 0.2695 47.5993 1.46936 47.5993 2.8715C47.5993 3.10596 47.5763 3.3496 47.5303 3.59325L36.1109 62.2164C35.7799 63.9082 34.387 65.0575 32.9986 64.7862C31.808 64.5564 31.0081 63.3565 31.0081 61.9544C31.0081 61.7199 31.031 61.4763 31.077 61.2326Z" fill="url(#paint0_linear_51_158)"/>
<path d="M36.3223 11.9463C36.0694 13.2519 34.9247 14.1943 33.5961 14.1943H21.5745L21.524 14.1989L5.6821 32.4083L21.5516 50.6499L21.5745 50.6269H25.4178C27.1647 50.6269 28.4795 52.2222 28.1439 53.9369C27.8911 55.2425 26.7464 56.1849 25.4178 56.1849H21.5745C20.085 56.1849 18.6369 55.5965 17.6026 54.5667L1.48489 36.0493C0.52868 35.0563 0 33.7691 0 32.4083C0 31.0476 0.524083 29.7604 1.48489 28.772L17.4647 10.4017L17.6072 10.25C18.6461 9.2248 20.0942 8.63635 21.5791 8.63635H33.6007C35.3431 8.63635 36.6579 10.2316 36.3223 11.9463Z" fill="url(#paint1_linear_51_158)"/>
<path d="M61.0091 10.2546L66.1993 16.2171H73.8674C74.8972 16.2171 75.7339 17.0538 75.7339 18.0836V20.281C75.7339 21.3108 74.8972 22.1475 73.8674 22.1475H71.3574L77.1268 28.7766C78.083 29.7696 78.6117 31.0568 78.6117 32.4129C78.6117 33.7737 78.0876 35.0609 77.1268 36.0493L61.147 54.415L61.0045 54.5667C59.9656 55.5965 58.5175 56.1849 57.028 56.1849H45.011C43.264 56.1849 41.9492 54.5897 42.2802 52.875C42.5331 51.5694 43.6778 50.6269 45.011 50.6269L57.0831 50.6223L72.925 32.4129L57.0602 14.1714L57.0326 14.1943H53.1893C51.4424 14.1943 50.1276 12.5991 50.4632 10.8844C50.716 9.57878 51.8608 8.63635 53.1893 8.63635H57.0326C58.5221 8.63635 59.9702 9.2294 61.0091 10.2546Z" fill="url(#paint2_linear_51_158)"/>
<path d="M56.3291 27.0159L60.2551 31.5257C60.4895 31.7693 60.6182 32.0819 60.6182 32.4129C60.6182 32.7439 60.4895 33.0565 60.2551 33.3002L56.3613 37.7732L56.3291 37.81C56.0762 38.0583 55.7223 38.2054 55.3591 38.2054H52.6743C52.0307 38.2054 51.5112 37.6859 51.5112 37.0423V27.7836C51.5112 27.14 52.0307 26.6205 52.6743 26.6205H55.3591C55.7223 26.6205 56.0762 26.763 56.3291 27.0159Z" fill="url(#paint3_linear_51_158)"/>
<path d="M24.3144 37.7824L19.5471 35.6585C19.3494 35.5712 19.2207 35.3735 19.2207 35.1574V29.6638C19.2207 29.4477 19.3494 29.2501 19.5471 29.1627L24.3144 27.0388C24.6178 26.9055 24.958 26.9055 25.2614 27.0388L30.0287 29.1627C30.2263 29.2501 30.3551 29.4477 30.3551 29.6638V35.1574C30.3551 35.3735 30.2263 35.5712 30.0287 35.6585L25.2614 37.7824C24.958 37.9203 24.6132 37.9203 24.3144 37.7824Z" fill="url(#paint4_linear_51_158)"/>
<defs>
<linearGradient id="paint0_linear_51_158" x1="-17.6425" y1="66.1756" x2="83.746" y2="6.06222" gradientUnits="userSpaceOnUse">
<stop offset="2.29095e-07" stop-color="#6317F7"/>
<stop offset="1" stop-color="#18FFFF"/>
</linearGradient>
<linearGradient id="paint1_linear_51_158" x1="-21.859" y1="59.0644" x2="79.5296" y2="-1.04908" gradientUnits="userSpaceOnUse">
<stop offset="2.29095e-07" stop-color="#6317F7"/>
<stop offset="1" stop-color="#18FFFF"/>
</linearGradient>
<linearGradient id="paint2_linear_51_158" x1="-13.4263" y1="73.287" x2="87.9623" y2="13.1736" gradientUnits="userSpaceOnUse">
<stop offset="2.29095e-07" stop-color="#6317F7"/>
<stop offset="1" stop-color="#18FFFF"/>
</linearGradient>
<linearGradient id="paint3_linear_51_158" x1="-13.8078" y1="72.6438" x2="87.5808" y2="12.5304" gradientUnits="userSpaceOnUse">
<stop offset="2.29095e-07" stop-color="#6317F7"/>
<stop offset="1" stop-color="#18FFFF"/>
</linearGradient>
<linearGradient id="paint4_linear_51_158" x1="-21.4187" y1="59.8071" x2="79.9699" y2="-0.306361" gradientUnits="userSpaceOnUse">
<stop offset="2.29095e-07" stop-color="#6317F7"/>
<stop offset="1" stop-color="#18FFFF"/>
</linearGradient>
</defs>
</svg>
