<svg width="35" height="35" viewBox="0 0 35 35" fill="none" xmlns="http://www.w3.org/2000/svg">
<path d="M27.6594 15.0127L26.6958 14.3547C27.8234 12.6939 28.48 10.7586 28.5959 8.75449C28.7117 6.7504 28.2825 4.75235 27.3538 2.97266L27.1578 2.61566L28.1751 2.04166L28.3851 2.43133C29.4127 4.39807 29.8881 6.60653 29.7607 8.82188C29.6334 11.0372 28.908 13.1767 27.6618 15.0127H27.6594ZM30.3498 31.6517V32.6667H4.68311V31.6517H10.4884L14.1028 14.9333C14.1588 14.6724 14.3027 14.4385 14.5103 14.2708C14.718 14.103 14.9768 14.0116 15.2438 14.0117H16.9354V10.738C16.3535 10.6028 15.834 10.2756 15.4606 9.80914C15.0873 9.34268 14.8819 8.76412 14.8774 8.16666C14.8668 7.80561 14.9288 7.44611 15.0596 7.10943C15.1904 6.77275 15.3875 6.46576 15.6391 6.20662C15.8908 5.94748 16.1918 5.74147 16.5245 5.6008C16.8572 5.46012 17.2147 5.38764 17.5759 5.38764C17.9371 5.38764 18.2947 5.46012 18.6274 5.6008C18.96 5.74147 19.2611 5.94748 19.5127 6.20662C19.7644 6.46576 19.9614 6.77275 20.0923 7.10943C20.2231 7.44611 20.2851 7.80561 20.2744 8.16666C20.2693 8.78332 20.0501 9.37903 19.6542 9.8519C19.2584 10.3248 18.7106 10.6454 18.1044 10.759V14.014H19.7868C20.0538 14.0133 20.3129 14.1041 20.521 14.2715C20.7291 14.4388 20.8735 14.6724 20.9301 14.9333L24.5398 31.6517H30.3498ZM19.7261 20.419H15.3068L14.5531 23.9027H20.4821L19.7261 20.419ZM14.2988 25.0693L13.5451 28.5577H21.4854L20.7318 25.0693H14.2988ZM16.1841 16.3473L15.5541 19.2523H19.4741L18.8464 16.3473H16.1841ZM12.8754 31.654H22.1551L21.7374 29.7243H13.2908L12.8754 31.654ZM12.1568 11.697C11.4596 10.6388 11.0911 9.3979 11.0978 8.13068C11.1044 6.86346 11.4859 5.62653 12.1941 4.57566L11.2281 3.92233C10.3903 5.164 9.93906 6.62595 9.93117 8.12378C9.92328 9.62162 10.3591 11.0882 11.1838 12.3387L12.1568 11.697ZM25.0998 8.16666C25.1012 6.68555 24.668 5.23656 23.8538 3.99933L22.8784 4.641C23.5739 5.6992 23.941 6.93941 23.9335 8.20568C23.9261 9.47195 23.5444 10.7077 22.8364 11.7577L23.8024 12.4063C24.6497 11.1549 25.1016 9.67791 25.0998 8.16666ZM8.24611 14.2753C7.11629 12.5581 6.48477 10.5611 6.42175 8.50648C6.35873 6.45184 6.86666 4.41996 7.88911 2.63666L6.87877 2.05333C5.74819 4.02467 5.18668 6.27101 5.25671 8.54245C5.32674 10.8139 6.02557 13.0214 7.27544 14.9193L8.24611 14.2753Z" fill="#323260"/>
</svg>
