<svg width="100" height="75" viewBox="0 0 100 75" fill="none" xmlns="http://www.w3.org/2000/svg">
<path d="M77.5 56.25H81.875C83.125 56.25 84.375 55 84.375 53.75V8.75C84.375 7.5 83.125 6.25 81.875 6.25H77.5C76.25 6.25 75 7.5 75 8.75V53.75C75 55 76.25 56.25 77.5 56.25ZM40 56.25H44.375C45.625 56.25 46.875 55 46.875 53.75V15C46.875 13.75 45.625 12.5 44.375 12.5H40C38.75 12.5 37.5 13.75 37.5 15V53.75C37.5 55 38.75 56.25 40 56.25ZM58.75 56.25H63.125C64.375 56.25 65.625 55 65.625 53.75V27.5C65.625 26.25 64.375 25 63.125 25H58.75C57.5 25 56.25 26.25 56.25 27.5V53.75C56.25 55 57.5 56.25 58.75 56.25ZM96.875 65.625H9.375V3.125C9.375 1.39844 7.97656 0 6.25 0H3.125C1.39844 0 0 1.39844 0 3.125V68.75C0 72.2012 2.79883 75 6.25 75H96.875C98.6016 75 100 73.6016 100 71.875V68.75C100 67.0234 98.6016 65.625 96.875 65.625ZM21.25 56.25H25.625C26.875 56.25 28.125 55 28.125 53.75V40C28.125 38.75 26.875 37.5 25.625 37.5H21.25C20 37.5 18.75 38.75 18.75 40V53.75C18.75 55 20 56.25 21.25 56.25V56.25Z" fill="#222222"/>
</svg>
