<svg width="30" height="30" viewBox="0 0 30 30" fill="none" xmlns="http://www.w3.org/2000/svg">
<path d="M3.75 23.7498V7.12478C3.74992 6.86818 3.82881 6.61778 3.97596 6.40757C4.12311 6.19737 4.33138 6.03753 4.5725 5.94978L16.6613 1.55478C16.7557 1.52041 16.857 1.50932 16.9566 1.52244C17.0563 1.53557 17.1513 1.57253 17.2336 1.63018C17.3159 1.68783 17.3831 1.76448 17.4294 1.85362C17.4758 1.94277 17.5 2.04179 17.5 2.14228V8.33353L25.395 10.9648C25.644 11.0477 25.8606 11.2069 26.0141 11.4198C26.1675 11.6328 26.2501 11.8886 26.25 12.151V23.7498H28.75V26.2498H1.25V23.7498H3.75ZM6.25 23.7498H15V4.81853L6.25 8.00103V23.7498ZM23.75 23.7498V13.0523L17.5 10.9685V23.7498H23.75Z" fill="#121315"/>
</svg>
