<svg width="70" height="70" viewBox="0 0 70 70" fill="none" xmlns="http://www.w3.org/2000/svg">
<path d="M21 10.5C18.2152 10.5 15.5445 11.6062 13.5754 13.5754C11.6062 15.5445 10.5 18.2152 10.5 21V49C10.5 51.7848 11.6062 54.4555 13.5754 56.4246C15.5445 58.3938 18.2152 59.5 21 59.5H38.633C38.5442 58.9209 38.4998 58.3359 38.5 57.75C38.5 57.1515 38.5595 56.567 38.675 56H21C19.1435 56 17.363 55.2625 16.0503 53.9497C14.7375 52.637 14 50.8565 14 49V21C14 19.1435 14.7375 17.363 16.0503 16.0503C17.363 14.7375 19.1435 14 21 14H49C50.8565 14 52.637 14.7375 53.9497 16.0503C55.2625 17.363 56 19.1435 56 21V31.6435C57.2565 31.8535 58.436 32.291 59.5 32.9035V21C59.5 18.2152 58.3938 15.5445 56.4246 13.5754C54.4555 11.6062 51.7848 10.5 49 10.5H21ZM48.489 27.489C48.8176 27.1604 49.0022 26.7147 49.0022 26.25C49.0022 25.7853 48.8176 25.3396 48.489 25.011C48.1604 24.6824 47.7147 24.4978 47.25 24.4978C46.7853 24.4978 46.3396 24.6824 46.011 25.011L29.75 41.2755L23.989 35.511C23.6604 35.1824 23.2147 34.9978 22.75 34.9978C22.2853 34.9978 21.8396 35.1824 21.511 35.511C21.1824 35.8396 20.9978 36.2853 20.9978 36.75C20.9978 37.2147 21.1824 37.6604 21.511 37.989L28.511 44.989C28.6736 45.152 28.8667 45.2813 29.0793 45.3695C29.2919 45.4577 29.5198 45.5031 29.75 45.5031C29.9802 45.5031 30.2081 45.4577 30.4207 45.3695C30.6333 45.2813 30.8264 45.152 30.989 44.989L48.489 27.489ZM61.25 42C61.25 43.8565 60.5125 45.637 59.1997 46.9497C57.887 48.2625 56.1065 49 54.25 49C52.3935 49 50.613 48.2625 49.3003 46.9497C47.9875 45.637 47.25 43.8565 47.25 42C47.25 40.1435 47.9875 38.363 49.3003 37.0503C50.613 35.7375 52.3935 35 54.25 35C56.1065 35 57.887 35.7375 59.1997 37.0503C60.5125 38.363 61.25 40.1435 61.25 42ZM66.5 57.75C66.5 62.1075 63 66.5 54.25 66.5C45.5 66.5 42 62.125 42 57.75C42 56.3576 42.5531 55.0223 43.5377 54.0377C44.5223 53.0531 45.8576 52.5 47.25 52.5H61.25C62.6424 52.5 63.9777 53.0531 64.9623 54.0377C65.9469 55.0223 66.5 56.3576 66.5 57.75Z" fill="#323260" fill-opacity="0.5"/>
</svg>
