<svg width="25" height="26" viewBox="0 0 25 26" fill="none" xmlns="http://www.w3.org/2000/svg">
<path d="M14.4531 2.0625H23.8281C24.4753 2.0625 25 2.58716 25 3.23438V11.0469C25 11.6941 24.4753 12.2188 23.8281 12.2188H14.4531C13.8059 12.2188 13.2812 11.6941 13.2812 11.0469V3.23438C13.2812 2.58716 13.8059 2.0625 14.4531 2.0625ZM10.5469 2.0625H1.17188C0.524658 2.0625 0 2.58716 0 3.23438V11.0469C0 11.6941 0.524658 12.2188 1.17188 12.2188H10.5469C11.1941 12.2188 11.7188 11.6941 11.7188 11.0469V3.23438C11.7188 2.58716 11.1941 2.0625 10.5469 2.0625ZM0 14.9531V22.7656C0 23.4128 0.524658 23.9375 1.17188 23.9375H10.5469C11.1941 23.9375 11.7188 23.4128 11.7188 22.7656V14.9531C11.7188 14.3059 11.1941 13.7812 10.5469 13.7812H1.17188C0.524658 13.7812 0 14.3059 0 14.9531ZM14.4531 23.9375H23.8281C24.4753 23.9375 25 23.4128 25 22.7656V14.9531C25 14.3059 24.4753 13.7812 23.8281 13.7812H14.4531C13.8059 13.7812 13.2812 14.3059 13.2812 14.9531V22.7656C13.2812 23.4128 13.8059 23.9375 14.4531 23.9375Z" fill="#121315"/>
</svg>
