<svg width="40" height="38" viewBox="0 0 40 38" fill="none" xmlns="http://www.w3.org/2000/svg">
<g clip-path="url(#clip0_457_2682)">
<path d="M1.77882 32.9412H22.9412C23.9141 32.9412 24.7059 32.1494 24.7059 31.1765V8.82353C24.7059 8.79647 24.6941 8.77294 24.6906 8.74706C24.6873 8.7224 24.6822 8.69802 24.6753 8.67412C24.6522 8.57385 24.6027 8.48161 24.5318 8.40706L16.2976 0.172941C16.2044 0.0847988 16.0851 0.0290999 15.9576 0.0141176C15.9329 0.0117647 15.9094 0 15.8824 0H1.77176C0.795294 0 0 0.791765 0 1.76471V31.1765C0 32.1494 0.797647 32.9412 1.77882 32.9412ZM16.4706 2.00824L22.6976 8.23529H17.0588C16.9028 8.23529 16.7532 8.17332 16.6429 8.063C16.5326 7.95269 16.4706 7.80307 16.4706 7.64706V2.00824ZM1.17647 1.76471C1.17647 1.44 1.44353 1.17647 1.77176 1.17647H15.2941V7.64706C15.2941 8.62 16.0859 9.41177 17.0588 9.41177H23.5294V31.1765C23.5294 31.3325 23.4674 31.4821 23.3571 31.5924C23.2468 31.7027 23.0972 31.7647 22.9412 31.7647H1.77882C1.70065 31.7656 1.62305 31.7512 1.55047 31.7221C1.47789 31.693 1.41174 31.65 1.35581 31.5954C1.29987 31.5407 1.25525 31.4756 1.22447 31.4037C1.1937 31.3319 1.17739 31.2546 1.17647 31.1765V1.76471Z" fill="#323260"/>
<path d="M5.29429 14.1177H19.4119C19.5679 14.1177 19.7176 14.0557 19.8279 13.9454C19.9382 13.8351 20.0002 13.6855 20.0002 13.5295C20.0002 13.3735 19.9382 13.2238 19.8279 13.1135C19.7176 13.0032 19.5679 12.9412 19.4119 12.9412H5.29429C5.13828 12.9412 4.98866 13.0032 4.87834 13.1135C4.76803 13.2238 4.70605 13.3735 4.70605 13.5295C4.70605 13.6855 4.76803 13.8351 4.87834 13.9454C4.98866 14.0557 5.13828 14.1177 5.29429 14.1177ZM5.29429 18.8236H19.4119C19.5679 18.8236 19.7176 18.7616 19.8279 18.6513C19.9382 18.541 20.0002 18.3914 20.0002 18.2354C20.0002 18.0793 19.9382 17.9297 19.8279 17.8194C19.7176 17.7091 19.5679 17.6471 19.4119 17.6471H5.29429C5.13828 17.6471 4.98866 17.7091 4.87834 17.8194C4.76803 17.9297 4.70605 18.0793 4.70605 18.2354C4.70605 18.3914 4.76803 18.541 4.87834 18.6513C4.98866 18.7616 5.13828 18.8236 5.29429 18.8236ZM5.29429 9.41182H11.1766C11.3327 9.41182 11.4823 9.34985 11.5926 9.23953C11.7029 9.12922 11.7649 8.9796 11.7649 8.82359C11.7649 8.66758 11.7029 8.51796 11.5926 8.40764C11.4823 8.29733 11.3327 8.23535 11.1766 8.23535H5.29429C5.13828 8.23535 4.98866 8.29733 4.87834 8.40764C4.76803 8.51796 4.70605 8.66758 4.70605 8.82359C4.70605 8.9796 4.76803 9.12922 4.87834 9.23953C4.98866 9.34985 5.13828 9.41182 5.29429 9.41182ZM5.29429 23.5295H19.4119C19.5679 23.5295 19.7176 23.4675 19.8279 23.3572C19.9382 23.2469 20.0002 23.0972 20.0002 22.9412C20.0002 22.7852 19.9382 22.6356 19.8279 22.5253C19.7176 22.415 19.5679 22.353 19.4119 22.353H5.29429C5.13828 22.353 4.98866 22.415 4.87834 22.5253C4.76803 22.6356 4.70605 22.7852 4.70605 22.9412C4.70605 23.0972 4.76803 23.2469 4.87834 23.3572C4.98866 23.4675 5.13828 23.5295 5.29429 23.5295ZM5.29429 28.2354H19.4119C19.5679 28.2354 19.7176 28.1734 19.8279 28.0631C19.9382 27.9527 20.0002 27.8031 20.0002 27.6471C20.0002 27.4911 19.9382 27.3415 19.8279 27.2312C19.7176 27.1209 19.5679 27.0589 19.4119 27.0589H5.29429C5.13828 27.0589 4.98866 27.1209 4.87834 27.2312C4.76803 27.3415 4.70605 27.4911 4.70605 27.6471C4.70605 27.8031 4.76803 27.9527 4.87834 28.0631C4.98866 28.1734 5.13828 28.2354 5.29429 28.2354Z" fill="#323260"/>
<path d="M25.2939 5.88228H30.5881V12.3529C30.5881 13.3258 31.3798 14.1176 32.3528 14.1176H38.8234V35.8823C38.8234 36.0383 38.7614 36.1879 38.6511 36.2982C38.5408 36.4085 38.3911 36.4705 38.2351 36.4705H17.0728C16.9946 36.4715 16.917 36.457 16.8444 36.4279C16.7718 36.3989 16.7057 36.3558 16.6498 36.3012C16.5938 36.2465 16.5492 36.1814 16.5184 36.1096C16.4876 36.0377 16.4713 35.9605 16.4704 35.8823V34.7058C16.4704 34.5498 16.4084 34.4002 16.2981 34.2899C16.1878 34.1796 16.0382 34.1176 15.8822 34.1176C15.7262 34.1176 15.5766 34.1796 15.4662 34.2899C15.3559 34.4002 15.2939 34.5498 15.2939 34.7058V35.8823C15.2939 36.8552 16.0916 37.647 17.0728 37.647H38.2351C39.2081 37.647 39.9998 36.8552 39.9998 35.8823V13.5293C39.9998 13.5023 39.9881 13.4788 39.9845 13.4529C39.9813 13.4282 39.9761 13.4038 39.9692 13.3799C39.9462 13.2797 39.8966 13.1874 39.8257 13.1129L31.5916 4.87875C31.4989 4.78988 31.3793 4.73441 31.2516 4.7211C31.2269 4.71758 31.2034 4.70581 31.1763 4.70581H25.2939C25.1379 4.70581 24.9883 4.76779 24.878 4.8781C24.7677 4.98842 24.7057 5.13804 24.7057 5.29405C24.7057 5.45006 24.7677 5.59968 24.878 5.70999C24.9883 5.82031 25.1379 5.88228 25.2939 5.88228ZM32.3528 12.9411C32.1968 12.9411 32.0471 12.8791 31.9368 12.7688C31.8265 12.6585 31.7645 12.5089 31.7645 12.3529V6.71405L37.9916 12.9411H32.3528Z" fill="#323260"/>
<path d="M27.6468 18.8234H34.7057C34.8617 18.8234 35.0113 18.7615 35.1216 18.6512C35.2319 18.5408 35.2939 18.3912 35.2939 18.2352C35.2939 18.0792 35.2319 17.9296 35.1216 17.8193C35.0113 17.7089 34.8617 17.647 34.7057 17.647H27.6468C27.4908 17.647 27.3412 17.7089 27.2309 17.8193C27.1206 17.9296 27.0586 18.0792 27.0586 18.2352C27.0586 18.3912 27.1206 18.5408 27.2309 18.6512C27.3412 18.7615 27.4908 18.8234 27.6468 18.8234ZM27.6468 23.5293H34.7057C34.8617 23.5293 35.0113 23.4674 35.1216 23.357C35.2319 23.2467 35.2939 23.0971 35.2939 22.9411C35.2939 22.7851 35.2319 22.6355 35.1216 22.5251C35.0113 22.4148 34.8617 22.3529 34.7057 22.3529H27.6468C27.4908 22.3529 27.3412 22.4148 27.2309 22.5251C27.1206 22.6355 27.0586 22.7851 27.0586 22.9411C27.0586 23.0971 27.1206 23.2467 27.2309 23.357C27.3412 23.4674 27.4908 23.5293 27.6468 23.5293ZM27.6468 28.2352H34.7057C34.8617 28.2352 35.0113 28.1732 35.1216 28.0629C35.2319 27.9526 35.2939 27.803 35.2939 27.647C35.2939 27.491 35.2319 27.3413 35.1216 27.231C35.0113 27.1207 34.8617 27.0587 34.7057 27.0587H27.6468C27.4908 27.0587 27.3412 27.1207 27.2309 27.231C27.1206 27.3413 27.0586 27.491 27.0586 27.647C27.0586 27.803 27.1206 27.9526 27.2309 28.0629C27.3412 28.1732 27.4908 28.2352 27.6468 28.2352ZM27.6468 32.9411H34.7057C34.8617 32.9411 35.0113 32.8791 35.1216 32.7688C35.2319 32.6585 35.2939 32.5089 35.2939 32.3529C35.2939 32.1968 35.2319 32.0472 35.1216 31.9369C35.0113 31.8266 34.8617 31.7646 34.7057 31.7646H27.6468C27.4908 31.7646 27.3412 31.8266 27.2309 31.9369C27.1206 32.0472 27.0586 32.1968 27.0586 32.3529C27.0586 32.5089 27.1206 32.6585 27.2309 32.7688C27.3412 32.8791 27.4908 32.9411 27.6468 32.9411Z" fill="#323260"/>
</g>
<defs>
<clipPath id="clip0_457_2682">
<rect width="40" height="37.6471" fill="white"/>
</clipPath>
</defs>
</svg>
