<svg width="25" height="26" viewBox="0 0 25 26" fill="none" xmlns="http://www.w3.org/2000/svg">
<path d="M12.4999 23.4168C6.74679 23.4168 2.08325 18.7533 2.08325 13.0002C2.08325 7.24704 6.74679 2.5835 12.4999 2.5835C18.253 2.5835 22.9166 7.24704 22.9166 13.0002C22.9166 18.7533 18.253 23.4168 12.4999 23.4168ZM8.85409 15.0835V17.1668H11.4583V19.2502H13.5416V17.1668H14.5833C15.2739 17.1668 15.9363 16.8925 16.4247 16.4041C16.9131 15.9157 17.1874 15.2533 17.1874 14.5627C17.1874 13.872 16.9131 13.2096 16.4247 12.7212C15.9363 12.2329 15.2739 11.9585 14.5833 11.9585H10.4166C10.2785 11.9585 10.146 11.9036 10.0483 11.8059C9.95063 11.7083 9.89575 11.5758 9.89575 11.4377C9.89575 11.2995 9.95063 11.1671 10.0483 11.0694C10.146 10.9717 10.2785 10.9168 10.4166 10.9168H16.1458V8.8335H13.5416V6.75016H11.4583V8.8335H10.4166C9.72592 8.8335 9.06354 9.10786 8.57516 9.59624C8.08679 10.0846 7.81242 10.747 7.81242 11.4377C7.81242 12.1283 8.08679 12.7907 8.57516 13.2791C9.06354 13.7675 9.72592 14.0418 10.4166 14.0418H14.5833C14.7214 14.0418 14.8539 14.0967 14.9515 14.1944C15.0492 14.2921 15.1041 14.4245 15.1041 14.5627C15.1041 14.7008 15.0492 14.8333 14.9515 14.9309C14.8539 15.0286 14.7214 15.0835 14.5833 15.0835H8.85409Z" fill="#1E1E1E"/>
</svg>
