<svg width="31" height="31" viewBox="0 0 31 31" fill="none" xmlns="http://www.w3.org/2000/svg">
<path d="M24.2976 16.7698C24.1926 16.6433 24.0637 16.5386 23.9183 16.4619C23.7729 16.3852 23.6137 16.338 23.45 16.3229C23.2863 16.3078 23.1212 16.3252 22.9642 16.374C22.8072 16.4228 22.6614 16.5021 22.5351 16.6073L17.0851 21.1448V6.31982C17.0851 5.9883 16.9534 5.67036 16.7189 5.43594C16.4845 5.20152 16.1666 5.06982 15.8351 5.06982C15.5035 5.06982 15.1856 5.20152 14.9512 5.43594C14.7168 5.67036 14.5851 5.9883 14.5851 6.31982V21.1448L9.13506 16.6073C9.00866 16.5023 8.86281 16.4231 8.70583 16.3744C8.54885 16.3258 8.38382 16.3085 8.22015 16.3235C8.05649 16.3386 7.8974 16.3858 7.75197 16.4624C7.60654 16.539 7.47762 16.6434 7.37256 16.7698C7.2675 16.8962 7.18837 17.0421 7.13968 17.1991C7.09099 17.356 7.07369 17.5211 7.08878 17.6847C7.10387 17.8484 7.15105 18.0075 7.22762 18.1529C7.30419 18.2983 7.40866 18.4273 7.53506 18.5323L15.0351 24.7823L15.2226 24.8948L15.3851 24.9823C15.6747 25.0941 15.9955 25.0941 16.2851 24.9823L16.4476 24.8948L16.6351 24.7823L24.1351 18.5323C24.2616 18.4274 24.3663 18.2985 24.4429 18.1531C24.5196 18.0076 24.5669 17.8485 24.582 17.6848C24.5971 17.5211 24.5797 17.356 24.5309 17.199C24.4821 17.042 24.4028 16.8961 24.2976 16.7698Z" fill="#222222"/>
</svg>
