<svg width="100" height="91" viewBox="0 0 100 91" fill="none" xmlns="http://www.w3.org/2000/svg">
<path d="M97.3198 17.4417C92.6687 6.86041 82.5525 0 71.8549 0C61.0411 0 54.0644 4.7674 49.9946 9.88364C45.9249 4.7674 38.9482 0 28.1343 0C17.4368 0 7.32057 6.86041 2.66945 17.4417C-2.33051 28.4881 -0.237508 40.6973 8.36707 50.2321C28.7157 73.1389 46.7388 89.3016 46.9714 89.4179C47.9016 90.2318 48.9481 90.5806 50.1109 90.5806C51.2737 90.5806 52.3202 90.2318 53.2504 89.4179C53.483 89.3016 71.3898 73.0226 91.8548 50.2321C100.227 40.6973 102.32 28.4881 97.3198 17.4417ZM84.7618 44.0694C69.6456 60.9297 55.9248 74.1854 49.9946 79.7668C44.0644 74.1854 30.3436 61.046 15.2275 44.0694C9.18102 37.209 7.6694 28.9532 11.0415 21.1626C14.2973 14.0696 21.1577 9.30225 28.1343 9.30225C41.9714 9.30225 45.111 19.651 45.4598 20.9301C45.9249 23.0231 47.7854 24.4184 49.8784 24.4184C51.9714 24.4184 53.8318 22.9068 54.4132 20.9301C54.762 19.7673 57.9015 9.30225 71.7386 9.30225C78.7153 9.30225 85.5757 14.0696 88.8315 21.2789C92.3199 28.9532 90.8083 37.209 84.7618 44.0694ZM83.599 30.5811C83.7153 32.7904 82.0874 34.7671 79.7618 34.8834C79.6455 34.8834 79.5293 34.8834 79.5293 34.8834C77.4363 34.8834 75.5758 33.2555 75.4595 31.0463C74.9944 24.4184 70.6921 23.3719 69.8782 23.2556C67.6689 22.9068 66.1573 20.9301 66.3898 18.7208C66.7387 16.5115 68.8317 14.9999 71.041 15.2324C75.1107 15.8138 82.9013 19.7673 83.599 30.5811ZM78.0177 37.3253C78.8316 38.2555 79.413 39.4183 79.413 40.5811C79.413 41.8601 78.9479 43.0229 78.0177 43.8368C77.2037 44.7671 75.9247 45.2322 74.7619 45.2322C73.5991 45.2322 72.32 44.7671 71.5061 43.8368C70.6921 43.0229 70.1107 41.7438 70.1107 40.5811C70.1107 39.4183 70.5759 38.1392 71.5061 37.3253C72.32 36.5113 73.5991 35.9299 74.7619 35.9299C75.9247 36.0462 77.0874 36.5113 78.0177 37.3253Z" fill="#222222"/>
</svg>
