<svg width="26" height="25" viewBox="0 0 26 25" fill="none" xmlns="http://www.w3.org/2000/svg">
<path d="M22.6064 12.4822H25.5002" stroke="white" stroke-width="1.83614"/>
<path d="M0.5 12.4822H16.4385" stroke="white" stroke-width="1.83614"/>
<path d="M10.1936 4.24316H25.4999" stroke="white" stroke-width="1.83614"/>
<path d="M0.5 4.24316H4.03618" stroke="white" stroke-width="1.83614"/>
<path d="M14.542 20.7214H25.5001" stroke="white" stroke-width="1.83614"/>
<path d="M0.5 20.7214H8.37418" stroke="white" stroke-width="1.83614"/>
<path d="M7.11489 7.16776C8.81807 7.16776 10.1988 5.78706 10.1988 4.08388C10.1988 2.3807 8.81807 1 7.11489 1C5.41171 1 4.03101 2.3807 4.03101 4.08388C4.03101 5.78706 5.41171 7.16776 7.11489 7.16776Z" stroke="white" stroke-width="1.83614"/>
<path d="M19.5224 15.5662C21.2255 15.5662 22.6062 14.1855 22.6062 12.4823C22.6062 10.7791 21.2255 9.39844 19.5224 9.39844C17.8192 9.39844 16.4385 10.7791 16.4385 12.4823C16.4385 14.1855 17.8192 15.5662 19.5224 15.5662Z" stroke="white" stroke-width="1.83614"/>
<path d="M11.4581 23.8055C13.1613 23.8055 14.542 22.4248 14.542 20.7216C14.542 19.0184 13.1613 17.6377 11.4581 17.6377C9.75497 17.6377 8.37427 19.0184 8.37427 20.7216C8.37427 22.4248 9.75497 23.8055 11.4581 23.8055Z" stroke="white" stroke-width="1.83614"/>
</svg>
