<svg width="25" height="26" viewBox="0 0 25 26" fill="none" xmlns="http://www.w3.org/2000/svg">
<path d="M1.5625 22.375C1.5625 23.2393 2.26074 23.9375 3.125 23.9375H10.9375V16.125H1.5625V22.375ZM14.0625 23.9375H21.875C22.7393 23.9375 23.4375 23.2393 23.4375 22.375V16.125H14.0625V23.9375ZM23.4375 8.3125H21.3818C21.6846 7.72168 21.875 7.06738 21.875 6.35938C21.875 3.99121 19.9463 2.0625 17.5781 2.0625C15.5469 2.0625 14.2334 3.10254 12.5488 5.39746C10.8643 3.10254 9.55078 2.0625 7.51953 2.0625C5.15137 2.0625 3.22266 3.99121 3.22266 6.35938C3.22266 7.06738 3.4082 7.72168 3.71582 8.3125H1.5625C0.698242 8.3125 0 9.01074 0 9.875V13.7812C0 14.2109 0.351562 14.5625 0.78125 14.5625H24.2188C24.6484 14.5625 25 14.2109 25 13.7812V9.875C25 9.01074 24.3018 8.3125 23.4375 8.3125ZM7.51465 8.3125C6.43555 8.3125 5.56152 7.43848 5.56152 6.35938C5.56152 5.28027 6.43555 4.40625 7.51465 4.40625C8.48633 4.40625 9.2041 4.56738 11.7188 8.3125H7.51465ZM17.5781 8.3125H13.374C15.8838 4.57715 16.582 4.40625 17.5781 4.40625C18.6572 4.40625 19.5312 5.28027 19.5312 6.35938C19.5312 7.43848 18.6572 8.3125 17.5781 8.3125Z" fill="#1E1E1E"/>
</svg>
