<svg width="25" height="26" viewBox="0 0 25 26" fill="none" xmlns="http://www.w3.org/2000/svg">
<path d="M13.5418 1.67188V2.18457C13.8196 2.24316 14.0887 2.31641 14.3318 2.38965C14.8873 2.55566 15.2172 3.2002 15.0696 3.8252C14.922 4.4502 14.3491 4.82129 13.7936 4.65527C13.3205 4.51367 12.8777 4.41602 12.4828 4.41113C12.1659 4.40625 11.8447 4.49414 11.6408 4.62598C11.5496 4.68945 11.5062 4.74316 11.4888 4.77246C11.4758 4.79688 11.4585 4.83105 11.4585 4.90918V4.93848C11.4671 4.94824 11.4975 4.99707 11.6017 5.06543C11.8534 5.23633 12.2267 5.36816 12.7909 5.55859L12.83 5.57324C13.3118 5.73438 13.9541 5.9541 14.475 6.32031C15.0696 6.74023 15.6078 7.43848 15.6208 8.5127C15.6339 9.61133 15.126 10.4121 14.462 10.8809C14.1712 11.0811 13.8587 11.2227 13.5375 11.3105V11.8281C13.5375 12.4775 13.0731 13 12.4958 13C11.9185 13 11.4541 12.4775 11.4541 11.8281V11.2715C11.0418 11.1592 10.6642 11.0127 10.343 10.8906C10.2518 10.8564 10.165 10.8223 10.0826 10.793C9.53569 10.5879 9.24055 9.92383 9.42285 9.30859C9.60514 8.69336 10.1954 8.36133 10.7423 8.56641C10.8552 8.61035 10.9593 8.64941 11.0591 8.68848C11.6494 8.91309 12.0748 9.07422 12.5305 9.09375C12.8777 9.1084 13.1859 9.01562 13.3639 8.89355C13.4463 8.83496 13.4854 8.78613 13.5028 8.75195C13.5201 8.72266 13.5418 8.66406 13.5375 8.55176V8.54199C13.5375 8.49316 13.5375 8.43945 13.3639 8.31738C13.1165 8.1416 12.7432 8.00488 12.1876 7.81445L12.1052 7.78516C11.6364 7.62891 11.0201 7.41895 10.5253 7.08203C9.93934 6.68652 9.3751 6.00781 9.37076 4.92871C9.36642 3.81055 9.93066 3.04395 10.573 2.61426C10.8508 2.42871 11.1503 2.30176 11.4498 2.21387V1.67188C11.4498 1.02246 11.9142 0.5 12.4915 0.5C13.0687 0.5 13.5331 1.02246 13.5331 1.67188H13.5418ZM24.6617 16.9209C25.2303 17.79 25.0654 19.0107 24.2928 19.6504L18.7979 24.2061C17.7823 25.0459 16.5583 25.5 15.2953 25.5H1.3889C0.620666 25.5 0 24.8018 0 23.9375V20.8125C0 19.9482 0.620666 19.25 1.3889 19.25H2.98614L4.93495 17.4922C5.9202 16.6035 7.14418 16.125 8.40721 16.125H15.2779C16.0462 16.125 16.6668 16.8232 16.6668 17.6875C16.6668 18.5518 16.0462 19.25 15.2779 19.25H11.8057C11.4237 19.25 11.1112 19.6016 11.1112 20.0312C11.1112 20.4609 11.4237 20.8125 11.8057 20.8125H17.0401L22.2355 16.5059C23.0081 15.8662 24.0931 16.0518 24.6617 16.9209ZM8.40287 19.25H8.36381H8.40287Z" fill="#1E1E1E"/>
</svg>
