<svg width="32" height="32" viewBox="0 0 32 32" fill="none" xmlns="http://www.w3.org/2000/svg">
<path fill-rule="evenodd" clip-rule="evenodd" d="M5.33331 28.6667C5.33331 28.4899 5.40355 28.3203 5.52858 28.1953C5.6536 28.0702 5.82317 28 5.99998 28H26C26.1768 28 26.3464 28.0702 26.4714 28.1953C26.5964 28.3203 26.6666 28.4899 26.6666 28.6667C26.6666 28.8435 26.5964 29.013 26.4714 29.1381C26.3464 29.2631 26.1768 29.3333 26 29.3333H5.99998C5.82317 29.3333 5.6536 29.2631 5.52858 29.1381C5.40355 29.013 5.33331 28.8435 5.33331 28.6667Z" fill="#323260" fill-opacity="0.5"/>
<path fill-rule="evenodd" clip-rule="evenodd" d="M7.99996 14.6666V28H11.3333V14.6666H7.99996ZM7.33329 13.3333C7.15648 13.3333 6.98691 13.4036 6.86189 13.5286C6.73686 13.6536 6.66663 13.8232 6.66663 14V28.6666C6.66663 28.8435 6.73686 29.013 6.86189 29.1381C6.98691 29.2631 7.15648 29.3333 7.33329 29.3333H12C12.1768 29.3333 12.3463 29.2631 12.4714 29.1381C12.5964 29.013 12.6666 28.8435 12.6666 28.6666V14C12.6666 13.8232 12.5964 13.6536 12.4714 13.5286C12.3463 13.4036 12.1768 13.3333 12 13.3333H7.33329Z" fill="#323260" fill-opacity="0.5"/>
<path fill-rule="evenodd" clip-rule="evenodd" d="M11.3333 2.66666L22 6.66666V16H20.6666V7.59066L12.6666 4.59066V28H18C18 28.1768 18.0702 28.3464 18.1952 28.4714C18.3203 28.5964 18.4898 28.6667 18.6666 28.6667H22V29.3333H11.3333V2.66666Z" fill="#323260" fill-opacity="0.5"/>
<path d="M13.3333 8.66666H14.6666V9.99999H13.3333V8.66666ZM16 8.66666H17.3333V9.99999H16V8.66666ZM18.6666 8.66666H20V9.99999H18.6666V8.66666ZM13.3333 11.3333H14.6666V12.6667H13.3333V11.3333ZM16 11.3333H17.3333V12.6667H16V11.3333ZM18.6666 11.3333H20V12.6667H18.6666V11.3333ZM13.3333 14H14.6666V15.3333H13.3333V14ZM16 14H17.3333V15.3333H16V14ZM18.6666 14H20V15.3333H18.6666V14ZM13.3333 16.6667H14.6666V18H13.3333V16.6667ZM16 16.6667H17.3333V18H16V16.6667ZM13.3333 19.3333H14.6666V20.6667H13.3333V19.3333ZM16 19.3333H17.3333V20.6667H16V19.3333ZM13.3333 22H14.6666V23.3333H13.3333V22ZM16 22H17.3333V23.3333H16V22ZM13.3333 24.6667H14.6666V26H13.3333V24.6667ZM16 24.6667H17.3333V26H16V24.6667Z" fill="#323260" fill-opacity="0.5"/>
<path fill-rule="evenodd" clip-rule="evenodd" d="M19.3333 17.3333V28H24V17.3333H19.3333ZM18.6667 16C18.4899 16 18.3203 16.0702 18.1953 16.1953C18.0702 16.3203 18 16.4899 18 16.6667V28.6667C18 28.8435 18.0702 29.013 18.1953 29.1381C18.3203 29.2631 18.4899 29.3333 18.6667 29.3333H24.6667C24.8435 29.3333 25.013 29.2631 25.1381 29.1381C25.2631 29.013 25.3333 28.8435 25.3333 28.6667V16.6667C25.3333 16.4899 25.2631 16.3203 25.1381 16.1953C25.013 16.0702 24.8435 16 24.6667 16H18.6667Z" fill="#323260" fill-opacity="0.5"/>
<path fill-rule="evenodd" clip-rule="evenodd" d="M22.6666 20H20.6666V18.6667H22.6666V20ZM22.6666 22.6667H20.6666V21.3333H22.6666V22.6667ZM22.6666 25.3333H20.6666V24H22.6666V25.3333ZM22.6666 28H20.6666V26.6667H22.6666V28ZM9.99996 8.66666V14.6667H8.66663V8.66666H9.99996Z" fill="#323260" fill-opacity="0.5"/>
</svg>
