<svg width="40" height="41" viewBox="0 0 40 41" fill="none" xmlns="http://www.w3.org/2000/svg">
<g clip-path="url(#clip0_2_13976)">
<path fill-rule="evenodd" clip-rule="evenodd" d="M31.4284 7.1665C32.4387 7.1665 33.4077 7.56786 34.1221 8.28229C34.8365 8.99671 35.2379 9.96568 35.2379 10.976V30.0236C35.2379 31.034 34.8365 32.003 34.1221 32.7174C33.4077 33.4318 32.4387 33.8332 31.4284 33.8332L25.716 33.8313L21.3465 38.2008C21.0185 38.5287 20.5821 38.7258 20.1192 38.7549C19.6563 38.784 19.1987 38.6432 18.8322 38.3589L18.6531 38.2008L14.2836 33.8313L8.57124 33.8332C7.56089 33.8332 6.59193 33.4318 5.8775 32.7174C5.16308 32.003 4.76172 31.034 4.76172 30.0236V10.976C4.76172 9.96568 5.16308 8.99671 5.8775 8.28229C6.59193 7.56786 7.56089 7.1665 8.57124 7.1665H31.4284Z" stroke="#323260" stroke-width="2.5" stroke-linecap="round" stroke-linejoin="round"/>
<path fill-rule="evenodd" clip-rule="evenodd" d="M19.998 22.4047C20.9504 22.4047 21.9027 21.4524 21.9027 20.5C21.9027 19.5476 20.9504 18.5952 19.998 18.5952C19.0456 18.5952 18.0951 19.5476 18.0951 20.5C18.0951 21.4524 19.0456 22.4047 19.998 22.4047ZM12.3789 22.4047C13.3313 22.4047 14.2837 21.4524 14.2837 20.5C14.2837 19.5476 13.3313 18.5952 12.3789 18.5952C11.4266 18.5952 10.4761 19.5476 10.4761 20.5C10.4761 21.4524 11.4266 22.4047 12.3789 22.4047ZM27.617 22.4047C28.5694 22.4047 29.5218 21.4524 29.5218 20.5C29.5218 19.5476 28.5694 18.5952 27.617 18.5952C26.6646 18.5952 25.7142 19.5476 25.7142 20.5C25.7142 21.4524 26.6646 22.4047 27.617 22.4047Z" fill="#323260"/>
</g>
<defs>
<clipPath id="clip0_2_13976">
<rect width="40" height="40" fill="white" transform="translate(0 0.5)"/>
</clipPath>
</defs>
</svg>
