<svg width="32" height="32" viewBox="0 0 32 32" fill="none" xmlns="http://www.w3.org/2000/svg">
<path d="M14 22.8667L19.3066 19.8267C20.2 19.32 20.2 18.0267 19.3066 17.5067L14 14.4667C13.1066 13.96 12 14.6133 12 15.6267V21.6933C12 22.72 13.1066 23.3733 14 22.8667ZM28 8H17.88L21.8 4.08C22.0666 3.81333 22.0666 3.4 21.8 3.13333C21.5333 2.86667 21.12 2.86667 20.8533 3.13333L16 7.98667L11.1466 3.13333C10.88 2.86667 10.4666 2.86667 10.2 3.13333C9.93331 3.4 9.93331 3.81333 10.2 4.08L14.12 8H3.99998C3.29274 8 2.61446 8.28095 2.11436 8.78105C1.61426 9.28115 1.33331 9.95942 1.33331 10.6667V26.6667C1.33331 28.1333 2.53331 29.3333 3.99998 29.3333H28C29.4666 29.3333 30.6666 28.1333 30.6666 26.6667V10.6667C30.6666 9.95942 30.3857 9.28115 29.8856 8.78105C29.3855 8.28095 28.7072 8 28 8ZM26.6666 26.6667H5.33331C4.59998 26.6667 3.99998 26.0667 3.99998 25.3333V12C3.99998 11.2667 4.59998 10.6667 5.33331 10.6667H26.6666C27.4 10.6667 28 11.2667 28 12V25.3333C28 26.0667 27.4 26.6667 26.6666 26.6667Z" fill="#323260" fill-opacity="0.5"/>
</svg>
