<svg width="32" height="32" viewBox="0 0 32 32" fill="none" xmlns="http://www.w3.org/2000/svg">
<path d="M12 4C10.348 4 9 5.348 9 7V19.625L10 18.906L11 19.625V7C11 6.45 11.45 6 12 6H13V4H12ZM24 4C22.348 4 21 5.348 21 7V8H12V10H21V12H12V14H21V16H12V18H21V19.625L22 18.906L23 19.625V7C23 6.45 23.45 6 24 6H25V4H24ZM10 20.719L9.375 21.219C9.375 21.219 8.371 22 7.031 22C5.691 22 4.625 21.219 4.625 21.219L3.375 22.781C3.375 22.781 4.918 24 7.031 24C8.492 24 9.421 23.516 10 23.156C10.582 23.512 11.559 24 13.031 24C14.492 24 15.421 23.516 16 23.156C16.582 23.512 17.559 24 19.031 24C20.492 24 21.421 23.516 22 23.156C22.582 23.512 23.559 24 25.031 24C27.145 24 28.625 22.781 28.625 22.781L27.375 21.219C27.375 21.219 26.371 22 25.031 22C23.691 22 22.625 21.219 22.625 21.219L22 20.719L21.375 21.219C21.375 21.219 20.371 22 19.031 22C17.691 22 16.625 21.219 16.625 21.219L16 20.719L15.375 21.219C15.375 21.219 14.371 22 13.031 22C11.691 22 10.625 21.219 10.625 21.219L10 20.719ZM10 24.719L9.375 25.219C9.375 25.219 8.371 26 7.031 26C5.691 26 4.625 25.219 4.625 25.219L3.375 26.781C3.375 26.781 4.918 28 7.031 28C8.492 28 9.421 27.516 10 27.156C10.582 27.512 11.559 28 13.031 28C14.492 28 15.421 27.516 16 27.156C16.582 27.512 17.559 28 19.031 28C20.492 28 21.421 27.516 22 27.156C22.582 27.512 23.559 28 25.031 28C27.145 28 28.625 26.781 28.625 26.781L27.375 25.219C27.375 25.219 26.371 26 25.031 26C23.691 26 22.625 25.219 22.625 25.219L22 24.719L21.375 25.219C21.375 25.219 20.371 26 19.031 26C17.691 26 16.625 25.219 16.625 25.219L16 24.719L15.375 25.219C15.375 25.219 14.371 26 13.031 26C11.691 26 10.625 25.219 10.625 25.219L10 24.719Z" fill="#323260" fill-opacity="0.5"/>
</svg>
