<svg width="40" height="41" viewBox="0 0 40 41" fill="none" xmlns="http://www.w3.org/2000/svg">
<path d="M19.9998 7.16683C23.6665 7.16683 26.6665 10.1668 26.6665 13.8335C26.6665 17.3335 23.1665 23.0002 19.9998 27.0002C16.8332 22.8335 13.3332 17.3335 13.3332 13.8335C13.3332 10.1668 16.3332 7.16683 19.9998 7.16683ZM19.9998 3.8335C14.4998 3.8335 9.99984 8.3335 9.99984 13.8335C9.99984 21.3335 19.9998 32.1668 19.9998 32.1668C19.9998 32.1668 29.9998 21.1668 29.9998 13.8335C29.9998 8.3335 25.4998 3.8335 19.9998 3.8335ZM19.9998 10.5002C18.1665 10.5002 16.6665 12.0002 16.6665 13.8335C16.6665 15.6668 18.1665 17.1668 19.9998 17.1668C21.8332 17.1668 23.3332 15.6668 23.3332 13.8335C23.3332 12.0002 21.8332 10.5002 19.9998 10.5002ZM33.3332 32.1668C33.3332 35.8335 27.3332 38.8335 19.9998 38.8335C12.6665 38.8335 6.6665 35.8335 6.6665 32.1668C6.6665 30.0002 8.6665 28.1668 11.8332 26.8335L12.8332 28.3335C11.1665 29.1668 9.99984 30.1668 9.99984 31.3335C9.99984 33.6668 14.4998 35.5002 19.9998 35.5002C25.4998 35.5002 29.9998 33.6668 29.9998 31.3335C29.9998 30.1668 28.8332 29.1668 26.9998 28.3335L27.9998 26.8335C31.3332 28.1668 33.3332 30.0002 33.3332 32.1668Z" fill="#323260"/>
</svg>
