<svg width="32" height="32" viewBox="0 0 32 32" fill="none" xmlns="http://www.w3.org/2000/svg">
<path d="M16 17.3333V28M17.3333 28H16M14.6667 28H16M16 17.3333C10.6667 17.3333 9.33333 12.8893 9.33333 10.6667V5.33333L12.6667 8L16 4L19.3333 8L22.6667 5.33333V10.6667C22.6667 12.8893 21.3333 17.3333 16 17.3333ZM17.3333 28C24.8 28 26.6667 21.7773 26.6667 18.6667C19.2 18.6667 17.3333 24.8893 17.3333 28ZM14.6667 28C7.2 28 5.33333 21.7773 5.33333 18.6667C12.8 18.6667 14.6667 24.8893 14.6667 28Z" stroke="#323260" stroke-opacity="0.5" stroke-width="2" stroke-linecap="round" stroke-linejoin="round"/>
</svg>
