<svg width="25" height="26" viewBox="0 0 25 26" fill="none" xmlns="http://www.w3.org/2000/svg">
<path d="M18.7501 17.1836C20.047 17.7346 20.8334 18.4576 20.8334 19.2503C20.8334 20.9763 17.1022 22.3753 12.5001 22.3753C7.898 22.3753 4.16675 20.9763 4.16675 19.2503C4.16675 18.4586 4.95321 17.7336 6.25008 17.1836" stroke="#323260" stroke-width="2" stroke-linecap="round" stroke-linejoin="round"/>
<path fill-rule="evenodd" clip-rule="evenodd" d="M11.7312 18.9116L12.5 18.2085L11.7312 18.9116ZM13.2687 18.9116L13.274 18.9064L13.2865 18.8918L13.3333 18.8397L13.5062 18.646C14.3718 17.6602 15.1881 16.6322 15.9521 15.5658C16.6208 14.6283 17.3062 13.5658 17.8281 12.5106C18.3385 11.4793 18.75 10.345 18.75 9.296C18.75 5.57412 16.0229 2.5835 12.5 2.5835C8.97708 2.5835 6.25 5.57308 6.25 9.296C6.25 10.345 6.66146 11.4793 7.17188 12.5106C7.69375 13.5658 8.38021 14.6283 9.04688 15.5658C9.86192 16.7024 10.7364 17.7953 11.6667 18.8397L11.7135 18.8918L11.726 18.9064L11.7312 18.9116C11.8288 19.0184 11.9476 19.1036 12.08 19.1619C12.2123 19.2203 12.3554 19.2504 12.5 19.2504C12.6446 19.2504 12.7877 19.2203 12.92 19.1619C13.0524 19.1036 13.1712 19.0184 13.2687 18.9116ZM12.5 18.2085L13.2687 18.9106L12.5 18.2085ZM12.5 6.75016C11.9475 6.75016 11.4176 6.96966 11.0269 7.36036C10.6362 7.75106 10.4167 8.28096 10.4167 8.8335C10.4167 9.38603 10.6362 9.91593 11.0269 10.3066C11.4176 10.6973 11.9475 10.9168 12.5 10.9168C13.0525 10.9168 13.5824 10.6973 13.9731 10.3066C14.3638 9.91593 14.5833 9.38603 14.5833 8.8335C14.5833 8.28096 14.3638 7.75106 13.9731 7.36036C13.5824 6.96966 13.0525 6.75016 12.5 6.75016Z" fill="#323260"/>
</svg>
