<svg width="32" height="32" viewBox="0 0 32 32" fill="none" xmlns="http://www.w3.org/2000/svg">
<path d="M10.9333 6.66667L8.26665 4H25.3333C26.0406 4 26.7188 4.28096 27.2189 4.78105C27.719 5.28115 28 5.95943 28 6.66667V23.7333L25.3333 21.0667V6.66667H10.9333ZM23.3333 19.0933C23.76 18.1333 24 17.1067 24 16C24 11.5733 20.4133 8 16 8C14.8933 8 13.8666 8.24 12.9066 8.66667L15.0266 10.76C15.3333 10.7067 15.6666 10.6667 16 10.6667C18.9466 10.6667 21.3333 13.0533 21.3333 16C21.3333 16.3333 21.2933 16.6667 21.24 16.9733L23.3333 19.0933ZM29.48 28.6133L27.7866 30.3067L25.4666 28H6.66665C5.9594 28 5.28113 27.7191 4.78103 27.219C4.28093 26.7189 3.99998 26.0406 3.99998 25.3333V6.53334L1.47998 4L3.18665 2.30667L29.48 28.6133ZM10.6666 16C10.6666 18.9467 13.0533 21.3333 16 21.3333C16.8266 21.3333 17.5866 21.1333 18.28 20.8L11.2 13.72C10.8666 14.4133 10.6666 15.1867 10.6666 16ZM22.8133 25.3333L20.2533 22.7733C19.0133 23.5467 17.56 24 16 24C11.5866 24 7.99998 20.4133 7.99998 16C7.99998 14.44 8.45331 12.9867 9.22665 11.7467L6.66665 9.18667V25.3333H22.8133Z" fill="#323260" fill-opacity="0.5"/>
</svg>
