<svg width="32" height="32" viewBox="0 0 32 32" fill="none" xmlns="http://www.w3.org/2000/svg">
<path d="M29.48 28.6133L3.18666 2.30667L1.48 4L5.41333 7.93334C3.63008 10.2441 2.66404 13.0812 2.66666 16C2.66666 23.3333 8.66666 29.3333 16 29.3333C19.04 29.3333 21.8267 28.3067 24.0667 26.5867L27.7867 30.3067L29.48 28.6133ZM16 26.6667C10.12 26.6667 5.33333 21.88 5.33333 16C5.33333 13.7067 6.08 11.5867 7.33333 9.84L9.24 11.76C8.43557 13.0283 8.00574 14.4981 8 16C8 17.7333 8.56 19.3333 9.48 20.6267L10.44 19.6667C9.74666 18.6133 9.33333 17.3333 9.33333 16C9.33333 14.8133 9.66666 13.7067 10.2133 12.7333L11.2 13.7333C10.8667 14.4133 10.6667 15.1867 10.6667 16C10.6667 16.9867 10.96 17.9067 11.4267 18.6667L12.4 17.72C12.1467 17.1867 12 16.6133 12 16C12 15.56 12.0933 15.1467 12.24 14.76L17.24 19.76C16.8533 19.9067 16.44 20 16 20C15.3867 20 14.8133 19.8533 14.2933 19.6L13.3333 20.5733C14.1067 21.0533 15.0133 21.3333 16 21.3333C16.8133 21.3333 17.5867 21.1333 18.28 20.8L19.2667 21.7867C18.2933 22.3333 17.1867 22.6667 16 22.6667C14.6667 22.6667 13.3867 22.2533 12.3333 21.56L11.3733 22.52C12.6667 23.4533 14.2667 24 16 24C17.56 24 19 23.5333 20.24 22.76L22.16 24.6667C20.4267 25.92 18.2933 26.6667 16 26.6667ZM16 10.6667C16.9867 10.6667 17.9067 10.96 18.6667 11.4267L17.72 12.4C17.28 12.2 16.8 12.08 16.3067 12.04L15.04 10.7733C15.3333 10.7067 15.6667 10.6667 16 10.6667ZM19.96 15.6933C19.92 15.2 19.8133 14.72 19.6 14.2933L20.5733 13.3333C21.0533 14.1067 21.3333 15.0133 21.3333 16C21.3333 16.3333 21.2933 16.6667 21.2267 16.96L19.96 15.6933ZM19.6667 10.44C18.6133 9.74667 17.3333 9.33334 16 9.33334C15.28 9.33334 14.5867 9.45334 13.9333 9.66667L12.92 8.66667C13.8667 8.24 14.9067 8 16 8C17.7333 8 19.3333 8.56 20.6267 9.48L19.6667 10.44ZM10.9067 6.66667L8.96 4.66667C11 3.41334 13.4133 2.66667 16 2.66667C23.3333 2.66667 29.3333 8.66667 29.3333 16C29.3333 18.5867 28.5867 21 27.3333 23.04L25.3333 21.1067C26.2 19.5867 26.6667 17.84 26.6667 16C26.6667 10.12 21.88 5.33334 16 5.33334C14.16 5.33334 12.4133 5.8 10.9067 6.66667ZM22.3333 18.0667C22.5467 17.4133 22.6667 16.72 22.6667 16C22.6667 14.6667 22.2533 13.3867 21.56 12.3333L22.52 11.3733C23.4533 12.6667 24 14.2667 24 16C24 17.1067 23.76 18.1333 23.3333 19.0933L22.3333 18.0667Z" fill="#323260" fill-opacity="0.5"/>
</svg>
