<svg width="25" height="26" viewBox="0 0 25 26" fill="none" xmlns="http://www.w3.org/2000/svg">
<path d="M12.5 2.0625C5.5957 2.0625 0 6.6084 0 12.2188C0 14.6406 1.04492 16.8574 2.7832 18.6006C2.17285 21.0615 0.131836 23.2539 0.107422 23.2783C0 23.3906 -0.0292969 23.5566 0.0341797 23.7031C0.0976562 23.8496 0.234375 23.9375 0.390625 23.9375C3.62793 23.9375 6.05469 22.3848 7.25586 21.4277C8.85254 22.0283 10.625 22.375 12.5 22.375C19.4043 22.375 25 17.8291 25 12.2188C25 6.6084 19.4043 2.0625 12.5 2.0625ZM6.25 13.7812C5.38574 13.7812 4.6875 13.083 4.6875 12.2188C4.6875 11.3545 5.38574 10.6562 6.25 10.6562C7.11426 10.6562 7.8125 11.3545 7.8125 12.2188C7.8125 13.083 7.11426 13.7812 6.25 13.7812ZM12.5 13.7812C11.6357 13.7812 10.9375 13.083 10.9375 12.2188C10.9375 11.3545 11.6357 10.6562 12.5 10.6562C13.3643 10.6562 14.0625 11.3545 14.0625 12.2188C14.0625 13.083 13.3643 13.7812 12.5 13.7812ZM18.75 13.7812C17.8857 13.7812 17.1875 13.083 17.1875 12.2188C17.1875 11.3545 17.8857 10.6562 18.75 10.6562C19.6143 10.6562 20.3125 11.3545 20.3125 12.2188C20.3125 13.083 19.6143 13.7812 18.75 13.7812Z" fill="#1E1E1E"/>
</svg>
