<svg width="100" height="100" viewBox="0 0 100 100" fill="none" xmlns="http://www.w3.org/2000/svg">
<path d="M78.125 100C83.9266 100 89.4906 97.6953 93.593 93.593C97.6953 89.4906 100 83.9266 100 78.125C100 72.3234 97.6953 66.7594 93.593 62.657C89.4906 58.5547 83.9266 56.25 78.125 56.25C72.3234 56.25 66.7594 58.5547 62.657 62.657C58.5547 66.7594 56.25 72.3234 56.25 78.125C56.25 83.9266 58.5547 89.4906 62.657 93.593C66.7594 97.6953 72.3234 100 78.125 100ZM81.25 68.75V75H87.5C88.3288 75 89.1237 75.3292 89.7097 75.9153C90.2958 76.5013 90.625 77.2962 90.625 78.125C90.625 78.9538 90.2958 79.7487 89.7097 80.3347C89.1237 80.9208 88.3288 81.25 87.5 81.25H81.25V87.5C81.25 88.3288 80.9208 89.1237 80.3347 89.7097C79.7487 90.2958 78.9538 90.625 78.125 90.625C77.2962 90.625 76.5013 90.2958 75.9153 89.7097C75.3292 89.1237 75 88.3288 75 87.5V81.25H68.75C67.9212 81.25 67.1263 80.9208 66.5403 80.3347C65.9542 79.7487 65.625 78.9538 65.625 78.125C65.625 77.2962 65.9542 76.5013 66.5403 75.9153C67.1263 75.3292 67.9212 75 68.75 75H75V68.75C75 67.9212 75.3292 67.1263 75.9153 66.5403C76.5013 65.9542 77.2962 65.625 78.125 65.625C78.9538 65.625 79.7487 65.9542 80.3347 66.5403C80.9208 67.1263 81.25 67.9212 81.25 68.75Z" fill="#323260"/>
<path d="M12.5 6.25C12.5 4.5924 13.1585 3.00269 14.3306 1.83058C15.5027 0.65848 17.0924 0 18.75 0L81.25 0C82.9076 0 84.4973 0.65848 85.6694 1.83058C86.8415 3.00269 87.5 4.5924 87.5 6.25V46.875C87.5 47.7038 87.1708 48.4987 86.5847 49.0847C85.9987 49.6708 85.2038 50 84.375 50C83.5462 50 82.7513 49.6708 82.1653 49.0847C81.5792 48.4987 81.25 47.7038 81.25 46.875V6.25H18.75V93.75H37.5V78.125C37.5 77.2962 37.8292 76.5013 38.4153 75.9153C39.0013 75.3292 39.7962 75 40.625 75H50V100H18.75C17.0924 100 15.5027 99.3415 14.3306 98.1694C13.1585 96.9973 12.5 95.4076 12.5 93.75V6.25Z" fill="#323260"/>
<path d="M28.125 12.5C27.2962 12.5 26.5013 12.8292 25.9153 13.4153C25.3292 14.0013 25 14.7962 25 15.625V21.875C25 22.7038 25.3292 23.4987 25.9153 24.0847C26.5013 24.6708 27.2962 25 28.125 25H34.375C35.2038 25 35.9987 24.6708 36.5847 24.0847C37.1708 23.4987 37.5 22.7038 37.5 21.875V15.625C37.5 14.7962 37.1708 14.0013 36.5847 13.4153C35.9987 12.8292 35.2038 12.5 34.375 12.5H28.125ZM46.875 12.5C46.0462 12.5 45.2513 12.8292 44.6653 13.4153C44.0792 14.0013 43.75 14.7962 43.75 15.625V21.875C43.75 22.7038 44.0792 23.4987 44.6653 24.0847C45.2513 24.6708 46.0462 25 46.875 25H53.125C53.9538 25 54.7487 24.6708 55.3347 24.0847C55.9208 23.4987 56.25 22.7038 56.25 21.875V15.625C56.25 14.7962 55.9208 14.0013 55.3347 13.4153C54.7487 12.8292 53.9538 12.5 53.125 12.5H46.875ZM65.625 12.5C64.7962 12.5 64.0013 12.8292 63.4153 13.4153C62.8292 14.0013 62.5 14.7962 62.5 15.625V21.875C62.5 22.7038 62.8292 23.4987 63.4153 24.0847C64.0013 24.6708 64.7962 25 65.625 25H71.875C72.7038 25 73.4987 24.6708 74.0847 24.0847C74.6708 23.4987 75 22.7038 75 21.875V15.625C75 14.7962 74.6708 14.0013 74.0847 13.4153C73.4987 12.8292 72.7038 12.5 71.875 12.5H65.625ZM28.125 31.25C27.2962 31.25 26.5013 31.5792 25.9153 32.1653C25.3292 32.7513 25 33.5462 25 34.375V40.625C25 41.4538 25.3292 42.2487 25.9153 42.8347C26.5013 43.4208 27.2962 43.75 28.125 43.75H34.375C35.2038 43.75 35.9987 43.4208 36.5847 42.8347C37.1708 42.2487 37.5 41.4538 37.5 40.625V34.375C37.5 33.5462 37.1708 32.7513 36.5847 32.1653C35.9987 31.5792 35.2038 31.25 34.375 31.25H28.125ZM46.875 31.25C46.0462 31.25 45.2513 31.5792 44.6653 32.1653C44.0792 32.7513 43.75 33.5462 43.75 34.375V40.625C43.75 41.4538 44.0792 42.2487 44.6653 42.8347C45.2513 43.4208 46.0462 43.75 46.875 43.75H53.125C53.9538 43.75 54.7487 43.4208 55.3347 42.8347C55.9208 42.2487 56.25 41.4538 56.25 40.625V34.375C56.25 33.5462 55.9208 32.7513 55.3347 32.1653C54.7487 31.5792 53.9538 31.25 53.125 31.25H46.875ZM65.625 31.25C64.7962 31.25 64.0013 31.5792 63.4153 32.1653C62.8292 32.7513 62.5 33.5462 62.5 34.375V40.625C62.5 41.4538 62.8292 42.2487 63.4153 42.8347C64.0013 43.4208 64.7962 43.75 65.625 43.75H71.875C72.7038 43.75 73.4987 43.4208 74.0847 42.8347C74.6708 42.2487 75 41.4538 75 40.625V34.375C75 33.5462 74.6708 32.7513 74.0847 32.1653C73.4987 31.5792 72.7038 31.25 71.875 31.25H65.625ZM28.125 50C27.2962 50 26.5013 50.3292 25.9153 50.9153C25.3292 51.5013 25 52.2962 25 53.125V59.375C25 60.2038 25.3292 60.9987 25.9153 61.5847C26.5013 62.1708 27.2962 62.5 28.125 62.5H34.375C35.2038 62.5 35.9987 62.1708 36.5847 61.5847C37.1708 60.9987 37.5 60.2038 37.5 59.375V53.125C37.5 52.2962 37.1708 51.5013 36.5847 50.9153C35.9987 50.3292 35.2038 50 34.375 50H28.125ZM46.875 50C46.0462 50 45.2513 50.3292 44.6653 50.9153C44.0792 51.5013 43.75 52.2962 43.75 53.125V59.375C43.75 60.2038 44.0792 60.9987 44.6653 61.5847C45.2513 62.1708 46.0462 62.5 46.875 62.5H53.125C53.9538 62.5 54.7487 62.1708 55.3347 61.5847C55.9208 60.9987 56.25 60.2038 56.25 59.375V53.125C56.25 52.2962 55.9208 51.5013 55.3347 50.9153C54.7487 50.3292 53.9538 50 53.125 50H46.875Z" fill="#323260"/>
</svg>
