<svg width="40" height="41" viewBox="0 0 40 41" fill="none" xmlns="http://www.w3.org/2000/svg">
<mask id="path-1-inside-1_2_13980" fill="white">
<path d="M26.6668 14.5232L19.1668 7.02317L7.35683 18.8332H10.0002V32.1665H15.0002V22.1665H23.3335V32.1665H28.3335V18.8332H30.9768L28.3335 16.1898V10.4998H26.6668V14.5232ZM3.3335 20.4998L19.1668 4.6665L25.0002 10.4998V8.83317H30.0002V15.4998L35.0002 20.4998H30.0002V33.8298H21.6668V23.8298H16.6668V33.8298H8.3335V20.4998H3.3335Z"/>
</mask>
<path d="M26.6668 14.5232L19.1668 7.02317L7.35683 18.8332H10.0002V32.1665H15.0002V22.1665H23.3335V32.1665H28.3335V18.8332H30.9768L28.3335 16.1898V10.4998H26.6668V14.5232ZM3.3335 20.4998L19.1668 4.6665L25.0002 10.4998V8.83317H30.0002V15.4998L35.0002 20.4998H30.0002V33.8298H21.6668V23.8298H16.6668V33.8298H8.3335V20.4998H3.3335Z" fill="#323260"/>
<path d="M26.6668 14.5232L23.1313 18.0587L31.6668 26.5942V14.5232H26.6668ZM19.1668 7.02317L22.7024 3.48764L19.1668 -0.0478973L15.6313 3.48764L19.1668 7.02317ZM7.35683 18.8332L3.8213 15.2976L-4.71424 23.8332H7.35683V18.8332ZM10.0002 18.8332H15.0002V13.8332H10.0002V18.8332ZM10.0002 32.1665H5.00016V37.1665H10.0002V32.1665ZM15.0002 32.1665V37.1665H20.0002V32.1665H15.0002ZM15.0002 22.1665V17.1665H10.0002V22.1665H15.0002ZM23.3335 22.1665H28.3335V17.1665H23.3335V22.1665ZM23.3335 32.1665H18.3335V37.1665H23.3335V32.1665ZM28.3335 32.1665V37.1665H33.3335V32.1665H28.3335ZM28.3335 18.8332V13.8332H23.3335V18.8332H28.3335ZM30.9768 18.8332V23.8332H43.0479L34.5124 15.2976L30.9768 18.8332ZM28.3335 16.1898H23.3335V18.2609L24.798 19.7254L28.3335 16.1898ZM28.3335 10.4998H33.3335V5.49984H28.3335V10.4998ZM26.6668 10.4998V5.49984H21.6668V10.4998H26.6668ZM3.3335 20.4998L-0.202038 16.9643L-8.73757 25.4998H3.3335V20.4998ZM19.1668 4.6665L22.7024 1.13097L19.1668 -2.40456L15.6313 1.13097L19.1668 4.6665ZM25.0002 10.4998L21.4646 14.0354L30.0002 22.5709V10.4998H25.0002ZM25.0002 8.83317V3.83317H20.0002V8.83317H25.0002ZM30.0002 8.83317H35.0002V3.83317H30.0002V8.83317ZM30.0002 15.4998H25.0002V17.5709L26.4646 19.0354L30.0002 15.4998ZM35.0002 20.4998V25.4998H47.0712L38.5357 16.9643L35.0002 20.4998ZM30.0002 20.4998V15.4998H25.0002V20.4998H30.0002ZM30.0002 33.8298V38.8298H35.0002V33.8298H30.0002ZM21.6668 33.8298H16.6668V38.8298H21.6668V33.8298ZM21.6668 23.8298H26.6668V18.8298H21.6668V23.8298ZM16.6668 23.8298V18.8298H11.6668V23.8298H16.6668ZM16.6668 33.8298V38.8298H21.6668V33.8298H16.6668ZM8.3335 33.8298H3.3335V38.8298H8.3335V33.8298ZM8.3335 20.4998H13.3335V15.4998H8.3335V20.4998ZM30.2024 10.9876L22.7024 3.48764L15.6313 10.5587L23.1313 18.0587L30.2024 10.9876ZM15.6313 3.48764L3.8213 15.2976L10.8924 22.3687L22.7024 10.5587L15.6313 3.48764ZM7.35683 23.8332H10.0002V13.8332H7.35683V23.8332ZM5.00016 18.8332V32.1665H15.0002V18.8332H5.00016ZM10.0002 37.1665H15.0002V27.1665H10.0002V37.1665ZM20.0002 32.1665V22.1665H10.0002V32.1665H20.0002ZM15.0002 27.1665H23.3335V17.1665H15.0002V27.1665ZM18.3335 22.1665V32.1665H28.3335V22.1665H18.3335ZM23.3335 37.1665H28.3335V27.1665H23.3335V37.1665ZM33.3335 32.1665V18.8332H23.3335V32.1665H33.3335ZM28.3335 23.8332H30.9768V13.8332H28.3335V23.8332ZM34.5124 15.2976L31.869 12.6543L24.798 19.7254L27.4413 22.3687L34.5124 15.2976ZM33.3335 16.1898V10.4998H23.3335V16.1898H33.3335ZM28.3335 5.49984H26.6668V15.4998H28.3335V5.49984ZM21.6668 10.4998V14.5232H31.6668V10.4998H21.6668ZM6.86903 24.0354L22.7024 8.20204L15.6313 1.13097L-0.202038 16.9643L6.86903 24.0354ZM15.6313 8.20204L21.4646 14.0354L28.5357 6.9643L22.7024 1.13097L15.6313 8.20204ZM30.0002 10.4998V8.83317H20.0002V10.4998H30.0002ZM25.0002 13.8332H30.0002V3.83317H25.0002V13.8332ZM25.0002 8.83317V15.4998H35.0002V8.83317H25.0002ZM26.4646 19.0354L31.4646 24.0354L38.5357 16.9643L33.5357 11.9643L26.4646 19.0354ZM35.0002 15.4998H30.0002V25.4998H35.0002V15.4998ZM25.0002 20.4998V33.8298H35.0002V20.4998H25.0002ZM30.0002 28.8298H21.6668V38.8298H30.0002V28.8298ZM26.6668 33.8298V23.8298H16.6668V33.8298H26.6668ZM21.6668 18.8298H16.6668V28.8298H21.6668V18.8298ZM11.6668 23.8298V33.8298H21.6668V23.8298H11.6668ZM16.6668 28.8298H8.3335V38.8298H16.6668V28.8298ZM13.3335 33.8298V20.4998H3.3335V33.8298H13.3335ZM8.3335 15.4998H3.3335V25.4998H8.3335V15.4998Z" fill="#323260" mask="url(#path-1-inside-1_2_13980)"/>
</svg>
