<svg width="25" height="26" viewBox="0 0 25 26" fill="none" xmlns="http://www.w3.org/2000/svg">
<g clip-path="url(#clip0_213_1782)">
<path d="M19.5312 25.5C20.9817 25.5 22.3727 24.9238 23.3982 23.8982C24.4238 22.8727 25 21.4817 25 20.0312C25 18.5808 24.4238 17.1898 23.3982 16.1643C22.3727 15.1387 20.9817 14.5625 19.5312 14.5625C18.0808 14.5625 16.6898 15.1387 15.6643 16.1643C14.6387 17.1898 14.0625 18.5808 14.0625 20.0312C14.0625 21.4817 14.6387 22.8727 15.6643 23.8982C16.6898 24.9238 18.0808 25.5 19.5312 25.5ZM22.1547 18.4797L20.0687 21.9578C19.9771 22.1106 19.8518 22.2405 19.7024 22.3376C19.5529 22.4347 19.3834 22.4964 19.2065 22.5181C19.0296 22.5398 18.8501 22.5209 18.6817 22.4628C18.5132 22.4047 18.3603 22.3089 18.2344 22.1828L17.025 20.975C16.8783 20.8283 16.7959 20.6293 16.7959 20.4219C16.7959 20.2144 16.8783 20.0154 17.025 19.8687C17.1717 19.7221 17.3707 19.6396 17.5781 19.6396C17.7856 19.6396 17.9846 19.7221 18.1313 19.8687L18.9859 20.725L20.8141 17.6766C20.8668 17.5885 20.9364 17.5118 21.0188 17.4506C21.1012 17.3895 21.1948 17.3452 21.2943 17.3202C21.3939 17.2952 21.4973 17.2901 21.5989 17.3052C21.7004 17.3202 21.7979 17.3551 21.8859 17.4078C21.974 17.4605 22.0507 17.5301 22.1119 17.6125C22.173 17.6949 22.2173 17.7886 22.2423 17.8881C22.2673 17.9876 22.2724 18.0911 22.2573 18.1926C22.2423 18.2941 22.2074 18.3917 22.1547 18.4797Z" fill="#1E1E1E"/>
<path d="M3.125 2.0625C3.125 1.6481 3.28962 1.25067 3.58265 0.957646C3.87567 0.66462 4.2731 0.5 4.6875 0.5L20.3125 0.5C20.7269 0.5 21.1243 0.66462 21.4174 0.957646C21.7104 1.25067 21.875 1.6481 21.875 2.0625V13.4C21.1222 13.1344 20.3296 12.9991 19.5312 13C18.4439 12.9992 17.3712 13.251 16.3978 13.7356C15.4243 14.2201 14.5768 14.9242 13.9219 15.7922C14.0138 15.6608 14.063 15.5042 14.0625 15.3438V13.7812C14.0625 13.574 13.9802 13.3753 13.8337 13.2288C13.6872 13.0823 13.4885 13 13.2812 13H11.7188C11.5115 13 11.3128 13.0823 11.1663 13.2288C11.0198 13.3753 10.9375 13.574 10.9375 13.7812V15.3438C10.9375 15.551 11.0198 15.7497 11.1663 15.8962C11.3128 16.0427 11.5115 16.125 11.7188 16.125H13.2812C13.3982 16.125 13.5137 16.0988 13.6192 16.0482C13.7246 15.9976 13.8174 15.924 13.8906 15.8328C13.1447 16.8314 12.6791 18.0111 12.5422 19.25H10.1562C9.94905 19.25 9.75034 19.3323 9.60382 19.4788C9.45731 19.6253 9.375 19.824 9.375 20.0312V25.5H4.6875C4.2731 25.5 3.87567 25.3354 3.58265 25.0424C3.28962 24.7493 3.125 24.3519 3.125 23.9375V2.0625ZM6.25 4.40625V5.96875C6.25 6.17595 6.33231 6.37466 6.47882 6.52118C6.62534 6.66769 6.82405 6.75 7.03125 6.75H8.59375C8.80095 6.75 8.99966 6.66769 9.14618 6.52118C9.29269 6.37466 9.375 6.17595 9.375 5.96875V4.40625C9.375 4.19905 9.29269 4.00034 9.14618 3.85382C8.99966 3.70731 8.80095 3.625 8.59375 3.625H7.03125C6.82405 3.625 6.62534 3.70731 6.47882 3.85382C6.33231 4.00034 6.25 4.19905 6.25 4.40625ZM10.9375 4.40625V5.96875C10.9375 6.17595 11.0198 6.37466 11.1663 6.52118C11.3128 6.66769 11.5115 6.75 11.7188 6.75H13.2812C13.4885 6.75 13.6872 6.66769 13.8337 6.52118C13.9802 6.37466 14.0625 6.17595 14.0625 5.96875V4.40625C14.0625 4.19905 13.9802 4.00034 13.8337 3.85382C13.6872 3.70731 13.4885 3.625 13.2812 3.625H11.7188C11.5115 3.625 11.3128 3.70731 11.1663 3.85382C11.0198 4.00034 10.9375 4.19905 10.9375 4.40625ZM16.4062 3.625C16.199 3.625 16.0003 3.70731 15.8538 3.85382C15.7073 4.00034 15.625 4.19905 15.625 4.40625V5.96875C15.625 6.17595 15.7073 6.37466 15.8538 6.52118C16.0003 6.66769 16.199 6.75 16.4062 6.75H17.9688C18.176 6.75 18.3747 6.66769 18.5212 6.52118C18.6677 6.37466 18.75 6.17595 18.75 5.96875V4.40625C18.75 4.19905 18.6677 4.00034 18.5212 3.85382C18.3747 3.70731 18.176 3.625 17.9688 3.625H16.4062ZM6.25 9.09375V10.6562C6.25 10.8635 6.33231 11.0622 6.47882 11.2087C6.62534 11.3552 6.82405 11.4375 7.03125 11.4375H8.59375C8.80095 11.4375 8.99966 11.3552 9.14618 11.2087C9.29269 11.0622 9.375 10.8635 9.375 10.6562V9.09375C9.375 8.88655 9.29269 8.68784 9.14618 8.54132C8.99966 8.39481 8.80095 8.3125 8.59375 8.3125H7.03125C6.82405 8.3125 6.62534 8.39481 6.47882 8.54132C6.33231 8.68784 6.25 8.88655 6.25 9.09375ZM11.7188 8.3125C11.5115 8.3125 11.3128 8.39481 11.1663 8.54132C11.0198 8.68784 10.9375 8.88655 10.9375 9.09375V10.6562C10.9375 10.8635 11.0198 11.0622 11.1663 11.2087C11.3128 11.3552 11.5115 11.4375 11.7188 11.4375H13.2812C13.4885 11.4375 13.6872 11.3552 13.8337 11.2087C13.9802 11.0622 14.0625 10.8635 14.0625 10.6562V9.09375C14.0625 8.88655 13.9802 8.68784 13.8337 8.54132C13.6872 8.39481 13.4885 8.3125 13.2812 8.3125H11.7188ZM15.625 9.09375V10.6562C15.625 10.8635 15.7073 11.0622 15.8538 11.2087C16.0003 11.3552 16.199 11.4375 16.4062 11.4375H17.9688C18.176 11.4375 18.3747 11.3552 18.5212 11.2087C18.6677 11.0622 18.75 10.8635 18.75 10.6562V9.09375C18.75 8.88655 18.6677 8.68784 18.5212 8.54132C18.3747 8.39481 18.176 8.3125 17.9688 8.3125H16.4062C16.199 8.3125 16.0003 8.39481 15.8538 8.54132C15.7073 8.68784 15.625 8.88655 15.625 9.09375ZM7.03125 13C6.82405 13 6.62534 13.0823 6.47882 13.2288C6.33231 13.3753 6.25 13.574 6.25 13.7812V15.3438C6.25 15.551 6.33231 15.7497 6.47882 15.8962C6.62534 16.0427 6.82405 16.125 7.03125 16.125H8.59375C8.80095 16.125 8.99966 16.0427 9.14618 15.8962C9.29269 15.7497 9.375 15.551 9.375 15.3438V13.7812C9.375 13.574 9.29269 13.3753 9.14618 13.2288C8.99966 13.0823 8.80095 13 8.59375 13H7.03125Z" fill="#1E1E1E"/>
</g>
<defs>
<clipPath id="clip0_213_1782">
<rect width="25" height="25" fill="white" transform="translate(0 0.5)"/>
</clipPath>
</defs>
</svg>
