<svg width="60" height="60" viewBox="0 0 60 60" fill="none" xmlns="http://www.w3.org/2000/svg">
<rect width="60" height="60" rx="30" fill="#F7F8FA"/>
<path d="M21.032 37.4481C16.508 32.5841 16.588 24.9601 21.288 20.2261C23.13 18.3627 25.5251 17.1448 28.116 16.7541L27.978 12.6001C24.3408 13.0393 20.9594 14.6965 18.384 17.3021C12.086 23.6421 12.01 33.8801 18.138 40.3641L14.656 43.8681L25.676 44.4701L25.646 32.8021L21.032 37.4481ZM34.326 13.5301L34.356 25.1981L38.97 20.5541C43.494 25.4221 43.414 33.0461 38.714 37.7761C36.8723 39.64 34.477 40.858 31.886 41.2481L32.024 45.4001C35.6612 44.9604 39.0429 43.3041 41.62 40.7001C47.916 34.3561 47.992 24.1181 41.864 17.6381L45.346 14.1301L34.326 13.5301Z" fill="#323260"/>
<path d="M53.3333 47.4998H55.8333L51.6666 53.3332M48.3333 47.4998H51.6666L50 54.1665M44.1666 47.4998H46.6666L48.3333 53.3332M52.5 43.3332H54.1666L55.8333 45.8332H53.3333M49.1666 43.3332H50.8333L51.6666 45.8332H48.3333M45.8333 43.3332H47.5L46.6666 45.8332H44.1666M45 41.6665L41.6666 46.6665L50 58.3332L58.3333 46.6665L55 41.6665H45Z" fill="#6317F7"/>
</svg>
