<svg width="32" height="32" viewBox="0 0 32 32" fill="none" xmlns="http://www.w3.org/2000/svg">
<path d="M29.3481 13.1173L21.9546 12.4757L19.0675 5.678C18.5481 4.44067 16.7761 4.44067 16.2567 5.678L13.3696 12.491L5.99145 13.1173C4.64718 13.2242 4.09726 14.9046 5.12073 15.7905L10.7269 20.6482L9.0466 27.8584C8.74108 29.1721 10.1617 30.2108 11.3227 29.5082L17.6621 25.6892L24.0016 29.5234C25.1625 30.2261 26.5832 29.1874 26.2776 27.8737L24.5973 20.6482L30.2035 15.7905C31.227 14.9046 30.6923 13.2242 29.3481 13.1173ZM17.6621 22.8327L11.9184 26.3003L13.446 19.7622L8.37447 15.3628L15.0652 14.7823L17.6621 8.62622L20.2743 14.7976L26.965 15.3781L21.8935 19.7775L23.4211 26.3155L17.6621 22.8327Z" fill="#323260"/>
</svg>
