<svg width="33" height="32" viewBox="0 0 33 32" fill="none" xmlns="http://www.w3.org/2000/svg">
<path d="M16.0186 24.3668L10.4853 27.7001C10.2409 27.8557 9.98532 27.9223 9.71865 27.9001C9.45198 27.8779 9.21865 27.789 9.01865 27.6334C8.81865 27.4779 8.66309 27.2837 8.55198 27.0508C8.44087 26.817 8.41865 26.5557 8.48532 26.2668L9.95198 19.9668L5.05198 15.7334C4.82976 15.5334 4.69109 15.3054 4.63598 15.0494C4.57998 14.7943 4.59643 14.5445 4.68532 14.3001C4.7742 14.0557 4.90754 13.8557 5.08532 13.7001C5.26309 13.5445 5.50754 13.4445 5.81865 13.4001L12.2853 12.8334L14.7853 6.9001C14.8964 6.63343 15.0689 6.43343 15.3026 6.3001C15.5355 6.16676 15.7742 6.1001 16.0186 6.1001C16.2631 6.1001 16.5022 6.16676 16.736 6.3001C16.9689 6.43343 17.1409 6.63343 17.252 6.9001L19.752 12.8334L26.2186 13.4001C26.5298 13.4445 26.7742 13.5445 26.952 13.7001C27.1298 13.8557 27.2631 14.0557 27.352 14.3001C27.4409 14.5445 27.4578 14.7943 27.4026 15.0494C27.3466 15.3054 27.2075 15.5334 26.9853 15.7334L22.0853 19.9668L23.552 26.2668C23.6186 26.5557 23.5964 26.817 23.4853 27.0508C23.3742 27.2837 23.2186 27.4779 23.0187 27.6334C22.8186 27.789 22.5853 27.8779 22.3186 27.9001C22.052 27.9223 21.7964 27.8557 21.552 27.7001L16.0186 24.3668Z" fill="#323260"/>
</svg>
