<svg width="25" height="26" viewBox="0 0 25 26" fill="none" xmlns="http://www.w3.org/2000/svg">
<g clip-path="url(#clip0_213_1799)">
<path d="M22.6562 15.3438C22.6562 20.9541 18.1104 25.5 12.5 25.5C6.88965 25.5 2.34375 20.9541 2.34375 15.3438C2.34375 10.2656 6.06934 6.05664 10.9375 5.30957V3.625H9.57031C9.24805 3.625 8.98438 3.36133 8.98438 3.03906V1.08594C8.98438 0.763672 9.24805 0.5 9.57031 0.5H15.4297C15.752 0.5 16.0156 0.763672 16.0156 1.08594V3.03906C16.0156 3.36133 15.752 3.625 15.4297 3.625H14.0625V5.30957C15.8936 5.59277 17.5635 6.36426 18.9307 7.48731L20.2734 6.14453C20.5029 5.91504 20.874 5.91504 21.1035 6.14453L22.4854 7.52637C22.7148 7.75586 22.7148 8.12695 22.4854 8.35644L21.0498 9.79199L21.0205 9.82129C22.0557 11.4033 22.6562 13.3027 22.6562 15.3438ZM14.0625 17.1016V9.7041C14.0625 9.38184 13.7988 9.11816 13.4766 9.11816H11.5234C11.2012 9.11816 10.9375 9.38184 10.9375 9.7041V17.1016C10.9375 17.4238 11.2012 17.6875 11.5234 17.6875H13.4766C13.7988 17.6875 14.0625 17.4238 14.0625 17.1016Z" fill="#1E1E1E"/>
</g>
<defs>
<clipPath id="clip0_213_1799">
<rect width="25" height="25" fill="white" transform="translate(0 0.5)"/>
</clipPath>
</defs>
</svg>
