<svg width="40" height="40" viewBox="0 0 40 40" fill="none" xmlns="http://www.w3.org/2000/svg">
<path d="M16.25 26.25H32.7125L29.4875 29.4875L31.25 31.25L37.5 25L31.25 18.75L29.4875 20.5125L32.7125 23.75H16.25V26.25Z" fill="#323260"/>
<path d="M27.5 17.5V12.5C27.501 12.3355 27.4694 12.1724 27.4072 12.0201C27.345 11.8678 27.2534 11.7293 27.1375 11.6125L18.3875 2.86252C18.2707 2.74667 18.1322 2.65501 17.9799 2.59281C17.8276 2.5306 17.6645 2.49907 17.5 2.50002H5C4.33696 2.50002 3.70107 2.76341 3.23223 3.23225C2.76339 3.70109 2.5 4.33698 2.5 5.00002V35C2.5 35.6631 2.76339 36.2989 3.23223 36.7678C3.70107 37.2366 4.33696 37.5 5 37.5H25C25.663 37.5 26.2989 37.2366 26.7678 36.7678C27.2366 36.2989 27.5 35.6631 27.5 35V32.5H25V35H5V5.00002H15V12.5C15 13.1631 15.2634 13.7989 15.7322 14.2678C16.2011 14.7366 16.837 15 17.5 15H25V17.5H27.5ZM17.5 12.5V5.51252L24.4875 12.5H17.5Z" fill="#323260"/>
</svg>
