<svg width="31" height="31" viewBox="0 0 31 31" fill="none" xmlns="http://www.w3.org/2000/svg">
<path d="M7.37334 13.3698C7.47828 13.4964 7.60715 13.601 7.75259 13.6777C7.89802 13.7544 8.05715 13.8017 8.22087 13.8167C8.3846 13.8318 8.54969 13.8145 8.70669 13.7657C8.8637 13.7169 9.00953 13.6376 9.13584 13.5323L14.5858 8.99482L14.5858 23.8198C14.5858 24.1513 14.7175 24.4693 14.952 24.7037C15.1864 24.9381 15.5043 25.0698 15.8358 25.0698C16.1674 25.0698 16.4853 24.9381 16.7197 24.7037C16.9541 24.4693 17.0858 24.1513 17.0858 23.8198V8.99482L22.5358 13.5323C22.6622 13.6374 22.8081 13.7165 22.9651 13.7652C23.122 13.8139 23.2871 13.8312 23.4507 13.8161C23.6144 13.801 23.7735 13.7538 23.9189 13.6773C24.0644 13.6007 24.1933 13.4962 24.2983 13.3698C24.4034 13.2434 24.4825 13.0976 24.5312 12.9406C24.5799 12.7836 24.5972 12.6186 24.5821 12.4549C24.567 12.2913 24.5198 12.1322 24.4433 11.9867C24.3667 11.8413 24.2622 11.7124 24.1358 11.6073L16.6358 5.35732L16.4483 5.24482L16.2858 5.15732C15.9962 5.04558 15.6754 5.04558 15.3858 5.15732L15.2233 5.24482L15.0358 5.35732L7.53584 11.6073C7.40927 11.7123 7.30464 11.8411 7.22795 11.9866C7.15126 12.132 7.10401 12.2911 7.08892 12.4549C7.07382 12.6186 7.09118 12.7837 7.13998 12.9407C7.18879 13.0977 7.26809 13.2435 7.37334 13.3698Z" fill="#222222"/>
</svg>
