<svg width="18" height="20" viewBox="0 0 18 20" fill="none" xmlns="http://www.w3.org/2000/svg">
<g clip-path="url(#clip0_457_2901)">
<path d="M13.404 8.75C13.7537 8.85417 14.0867 8.99554 14.4029 9.17411C14.7191 9.35268 15.0502 9.62426 15.3962 9.98884C15.7422 10.3534 16.0379 10.7831 16.2835 11.2779C16.529 11.7727 16.7336 12.4126 16.8973 13.1975C17.061 13.9825 17.1429 14.8624 17.1429 15.8371C17.1429 16.9829 16.7708 17.9632 16.0268 18.7779C15.2827 19.5926 14.3862 20 13.3371 20H3.8058C2.7567 20 1.86012 19.5926 1.11607 18.7779C0.372024 17.9632 0 16.9829 0 15.8371C0 14.8624 0.0818452 13.9825 0.245536 13.1975C0.409226 12.4126 0.613839 11.7727 0.859375 11.2779C1.10491 10.7831 1.40067 10.3534 1.74665 9.98884C2.09263 9.62426 2.42373 9.35268 2.73996 9.17411C3.05618 8.99554 3.38914 8.85417 3.73884 8.75C3.15104 7.81994 2.85714 6.80804 2.85714 5.71429C2.85714 4.94048 3.00781 4.20201 3.30915 3.49888C3.61049 2.79576 4.01786 2.1875 4.53125 1.67411C5.04464 1.16071 5.6529 0.753348 6.35603 0.452009C7.05915 0.15067 7.79762 0 8.57143 0C9.34524 0 10.0837 0.15067 10.7868 0.452009C11.49 0.753348 12.0982 1.16071 12.6116 1.67411C13.125 2.1875 13.5324 2.79576 13.8337 3.49888C14.135 4.20201 14.2857 4.94048 14.2857 5.71429C14.2857 6.80804 13.9918 7.81994 13.404 8.75ZM8.57143 1.42857C7.38839 1.42857 6.37835 1.8471 5.54129 2.68415C4.70424 3.52121 4.28571 4.53125 4.28571 5.71429C4.28571 6.89732 4.70424 7.90737 5.54129 8.74442C6.37835 9.58147 7.38839 10 8.57143 10C9.75446 10 10.7645 9.58147 11.6016 8.74442C12.4386 7.90737 12.8571 6.89732 12.8571 5.71429C12.8571 4.53125 12.4386 3.52121 11.6016 2.68415C10.7645 1.8471 9.75446 1.42857 8.57143 1.42857ZM13.3371 18.5714C13.9918 18.5714 14.5517 18.3054 15.0167 17.7734C15.4818 17.2414 15.7143 16.596 15.7143 15.8371C15.7143 14.0588 15.4222 12.6562 14.8382 11.6295C14.2541 10.6027 13.4152 10.0632 12.3214 10.0112C11.2426 10.9561 9.99256 11.4286 8.57143 11.4286C7.1503 11.4286 5.9003 10.9561 4.82143 10.0112C3.72768 10.0632 2.88876 10.6027 2.30469 11.6295C1.72061 12.6562 1.42857 14.0588 1.42857 15.8371C1.42857 16.596 1.66109 17.2414 2.12612 17.7734C2.59115 18.3054 3.15104 18.5714 3.8058 18.5714H13.3371Z" fill="#323260" fill-opacity="0.5"/>
</g>
<defs>
<clipPath id="clip0_457_2901">
<rect width="17.1429" height="20" fill="white"/>
</clipPath>
</defs>
</svg>
