<svg width="50" height="50" viewBox="0 0 50 50" fill="none" xmlns="http://www.w3.org/2000/svg">
<path d="M45.0439 25L48.0713 28.7842C48.3643 29.1585 48.5921 29.5654 48.7549 30.0049C48.9176 30.4443 48.999 30.9082 48.999 31.3965C48.999 31.8848 48.9258 32.3486 48.7793 32.7881C48.6328 33.2275 48.4212 33.6263 48.1445 33.9844C47.8678 34.3424 47.5342 34.6517 47.1436 34.9121C46.7529 35.1725 46.3298 35.3678 45.874 35.498L41.2109 36.792C41.2435 37.6221 41.2842 38.4603 41.333 39.3066C41.3818 40.153 41.4144 40.9993 41.4307 41.8457C41.4307 42.4316 41.3249 42.9769 41.1133 43.4814C40.9017 43.986 40.6006 44.4255 40.21 44.7998C39.8193 45.1742 39.3717 45.4753 38.8672 45.7031C38.3626 45.931 37.8092 46.0449 37.207 46.0449C36.7025 46.0449 36.2061 45.9554 35.7178 45.7764L31.2012 44.0674L28.54 48.0957C28.1494 48.6816 27.6449 49.1455 27.0264 49.4873C26.4079 49.8291 25.7324 50 25 50C24.2839 50 23.6165 49.8291 22.998 49.4873C22.3796 49.1455 21.8669 48.6816 21.46 48.0957L18.7988 44.0674L14.2822 45.7764C13.7939 45.9554 13.2975 46.0449 12.793 46.0449C12.207 46.0449 11.6618 45.9391 11.1572 45.7275C10.6527 45.5159 10.2051 45.2148 9.81445 44.8242C9.42383 44.4336 9.12272 43.986 8.91113 43.4814C8.69954 42.9769 8.58561 42.4316 8.56934 41.8457C8.56934 40.9993 8.59375 40.153 8.64258 39.3066C8.69141 38.4603 8.74023 37.6221 8.78906 36.792L4.12598 35.498C3.65397 35.3678 3.23079 35.1725 2.85645 34.9121C2.4821 34.6517 2.15658 34.3424 1.87988 33.9844C1.60319 33.6263 1.3916 33.2275 1.24512 32.7881C1.09863 32.3486 1.01725 31.8848 1.00098 31.3965C1.00098 30.9245 1.08236 30.4688 1.24512 30.0293C1.40788 29.5898 1.63574 29.1748 1.92871 28.7842L4.95605 25L1.92871 21.2158C1.31022 20.4508 1.00098 19.5801 1.00098 18.6035C1.00098 18.1152 1.07422 17.6514 1.2207 17.2119C1.36719 16.7725 1.57878 16.3737 1.85547 16.0156C2.13216 15.6576 2.45768 15.3483 2.83203 15.0879C3.20638 14.8275 3.6377 14.6322 4.12598 14.502L8.78906 13.208C8.75651 12.3779 8.71582 11.5397 8.66699 10.6934C8.61816 9.847 8.58561 9.00065 8.56934 8.1543C8.56934 7.56836 8.67513 7.02311 8.88672 6.51855C9.09831 6.014 9.39941 5.57454 9.79004 5.2002C10.1807 4.82585 10.6283 4.52474 11.1328 4.29688C11.6374 4.06901 12.1908 3.95508 12.793 3.95508C13.2975 3.95508 13.7939 4.0446 14.2822 4.22363L18.7988 5.93262L21.46 1.9043C21.8506 1.31836 22.3551 0.854492 22.9736 0.512695C23.5921 0.170898 24.2676 0 25 0C25.7161 0 26.3835 0.170898 27.002 0.512695C27.6204 0.854492 28.1331 1.31836 28.54 1.9043L31.2012 5.93262L35.7178 4.22363C36.2061 4.0446 36.7025 3.95508 37.207 3.95508C37.793 3.95508 38.3382 4.06087 38.8428 4.27246C39.3473 4.48405 39.7949 4.78516 40.1855 5.17578C40.5762 5.56641 40.8773 6.014 41.0889 6.51855C41.3005 7.02311 41.4144 7.56836 41.4307 8.1543C41.4307 9.00065 41.4062 9.847 41.3574 10.6934C41.3086 11.5397 41.2598 12.3779 41.2109 13.208L45.874 14.502C46.3298 14.6322 46.7529 14.8275 47.1436 15.0879C47.5342 15.3483 47.8597 15.6576 48.1201 16.0156C48.3805 16.3737 48.5921 16.7725 48.7549 17.2119C48.9176 17.6514 48.999 18.1152 48.999 18.6035C48.999 19.5801 48.6898 20.4508 48.0713 21.2158L45.0439 25ZM45.874 31.3965C45.874 31.1686 45.7926 30.9489 45.6299 30.7373L41.04 25L45.6299 19.2627C45.7926 19.0511 45.874 18.8314 45.874 18.6035C45.874 18.0501 45.5973 17.6921 45.0439 17.5293L40.3809 16.2354L37.9883 15.5762C38.0371 14.3392 38.1022 13.1022 38.1836 11.8652C38.265 10.6283 38.3057 9.39128 38.3057 8.1543C38.3057 7.8776 38.1917 7.63346 37.9639 7.42188C37.736 7.21029 37.4837 7.09635 37.207 7.08008C37.1094 7.08008 36.8896 7.12891 36.5479 7.22656C36.2061 7.32422 35.8073 7.46256 35.3516 7.6416C34.8958 7.82064 34.3913 8.01595 33.8379 8.22754C33.2845 8.43913 32.7637 8.64258 32.2754 8.83789C31.7871 9.0332 31.3314 9.21224 30.9082 9.375C30.485 9.53776 30.1676 9.65983 29.9561 9.74121L28.5889 7.66602L25.9277 3.61328C25.7161 3.28776 25.4069 3.125 25 3.125C24.5931 3.125 24.2839 3.28776 24.0723 3.61328L21.4111 7.66602L20.0439 9.74121C19.8324 9.65983 19.5231 9.53776 19.1162 9.375C18.7093 9.21224 18.2454 9.0332 17.7246 8.83789C17.2038 8.64258 16.6829 8.43913 16.1621 8.22754C15.6413 8.01595 15.1449 7.82878 14.6729 7.66602C14.2008 7.50326 13.7939 7.36491 13.4521 7.25098C13.1104 7.13704 12.8906 7.08008 12.793 7.08008C12.5163 7.08008 12.264 7.18587 12.0361 7.39746C11.8083 7.60905 11.6943 7.86133 11.6943 8.1543C11.6943 9.39128 11.735 10.6283 11.8164 11.8652C11.8978 13.1022 11.9629 14.3392 12.0117 15.5762L9.61914 16.2354L4.95605 17.5293C4.40267 17.6921 4.12598 18.0501 4.12598 18.6035C4.12598 18.8314 4.20736 19.0511 4.37012 19.2627L8.95996 25L4.37012 30.7373C4.20736 30.9489 4.12598 31.1686 4.12598 31.3965C4.12598 31.9499 4.40267 32.3079 4.95605 32.4707L9.61914 33.7646L12.0117 34.4238C11.9629 35.6608 11.8978 36.8978 11.8164 38.1348C11.735 39.3717 11.6943 40.6087 11.6943 41.8457C11.6943 42.1224 11.8083 42.3665 12.0361 42.5781C12.264 42.7897 12.5163 42.9036 12.793 42.9199C12.8906 42.9199 13.1104 42.8711 13.4521 42.7734C13.7939 42.6758 14.1927 42.5374 14.6484 42.3584C15.1042 42.1794 15.6087 41.9841 16.1621 41.7725C16.7155 41.5609 17.2363 41.3574 17.7246 41.1621C18.2129 40.9668 18.6686 40.7878 19.0918 40.625C19.515 40.4622 19.8324 40.3402 20.0439 40.2588L21.4111 42.334L24.0723 46.3867C24.2839 46.7122 24.5931 46.875 25 46.875C25.4069 46.875 25.7161 46.7122 25.9277 46.3867L28.5889 42.334L29.9561 40.2588C30.1676 40.3402 30.4769 40.4622 30.8838 40.625C31.2907 40.7878 31.7546 40.9668 32.2754 41.1621C32.7962 41.3574 33.3171 41.5609 33.8379 41.7725C34.3587 41.9841 34.8551 42.1712 35.3271 42.334C35.7992 42.4967 36.2061 42.6351 36.5479 42.749C36.8896 42.863 37.1094 42.9199 37.207 42.9199C37.4837 42.9199 37.736 42.8141 37.9639 42.6025C38.1917 42.3909 38.3057 42.1387 38.3057 41.8457C38.3057 40.6087 38.265 39.3717 38.1836 38.1348C38.1022 36.8978 38.0371 35.6608 37.9883 34.4238L40.3809 33.7646L45.0439 32.4707C45.5973 32.3079 45.874 31.9499 45.874 31.3965ZM21.875 29.0283L33.2764 17.6514L35.4736 19.8486L21.875 33.4717L14.5264 26.0986L16.7236 23.9014L21.875 29.0283Z" fill="#121315"/>
</svg>
