<svg width="32" height="32" viewBox="0 0 32 32" fill="none" xmlns="http://www.w3.org/2000/svg">
<path d="M21.425 19.675C21.5673 19.8119 21.6812 19.9755 21.7602 20.1565C21.8391 20.3375 21.8815 20.5323 21.885 20.7297C21.8885 20.9272 21.853 21.1233 21.7805 21.307C21.7079 21.4907 21.5999 21.6582 21.4625 21.8C21.3226 21.9441 21.1556 22.0591 20.9711 22.1385C20.7866 22.2178 20.5883 22.26 20.3875 22.2625C19.9966 22.2572 19.622 22.1055 19.3375 21.8375C18.4379 20.9801 17.2428 20.5018 16 20.5018C14.7572 20.5018 13.5621 20.9801 12.6625 21.8375C12.5205 21.9746 12.3529 22.0823 12.1693 22.1546C11.9856 22.2269 11.7895 22.2623 11.5922 22.2589C11.3949 22.2554 11.2002 22.2131 11.0192 22.1343C10.8382 22.0556 10.6745 21.942 10.5375 21.8C10.4004 21.658 10.2927 21.4904 10.2204 21.3068C10.1481 21.1231 10.1126 20.9271 10.1161 20.7297C10.1196 20.5324 10.1619 20.3377 10.2407 20.1567C10.3194 19.9758 10.433 19.8121 10.575 19.675C12.0357 18.2783 13.9789 17.4988 16 17.4988C18.021 17.4988 19.9642 18.2783 21.425 19.675ZM16 11.5C12.3798 11.4866 8.90141 12.9067 6.32498 15.45C6.18387 15.5866 6.07122 15.7499 5.99353 15.9303C5.91583 16.1107 5.87463 16.3047 5.87231 16.5011C5.86999 16.6975 5.90658 16.8924 5.97998 17.0746C6.05339 17.2567 6.16214 17.4226 6.29998 17.5625C6.43768 17.704 6.60196 17.8169 6.7834 17.8948C6.96484 17.9726 7.15986 18.0139 7.35729 18.0162C7.55471 18.0186 7.75065 17.9819 7.93387 17.9083C8.11709 17.8347 8.28399 17.7257 8.42498 17.5875C10.4498 15.6085 13.1687 14.5005 16 14.5005C18.8313 14.5005 21.5502 15.6085 23.575 17.5875C23.8552 17.8621 24.2326 18.0149 24.625 18.0125C24.825 18.0123 25.023 17.9724 25.2076 17.8952C25.3921 17.818 25.5595 17.7049 25.7 17.5625C25.8378 17.4226 25.9466 17.2567 26.02 17.0746C26.0934 16.8924 26.13 16.6975 26.1276 16.5011C26.1253 16.3047 26.0841 16.1107 26.0064 15.9303C25.9287 15.7499 25.8161 15.5866 25.675 15.45C23.0985 12.9067 19.6202 11.4866 16 11.5ZM29.925 11.2C26.2102 7.54788 21.2094 5.50131 16 5.50131C10.7906 5.50131 5.78974 7.54788 2.07498 11.2C1.79153 11.4801 1.63097 11.8614 1.62863 12.2599C1.62628 12.6584 1.78234 13.0416 2.06248 13.325C2.34261 13.6085 2.72388 13.769 3.12239 13.7714C3.52091 13.7737 3.90403 13.6176 4.18748 13.3375C7.33722 10.2366 11.58 8.4986 16 8.4986C20.42 8.4986 24.6627 10.2366 27.8125 13.3375C28.0915 13.6155 28.4686 13.7727 28.8625 13.775C29.1623 13.7783 29.4562 13.6917 29.7063 13.5263C29.9564 13.3609 30.1512 13.1244 30.2655 12.8472C30.3799 12.5701 30.4086 12.265 30.3479 11.9714C30.2872 11.6778 30.1399 11.4091 29.925 11.2ZM16 23C15.6044 23 15.2177 23.1173 14.8888 23.3371C14.5599 23.5568 14.3036 23.8692 14.1522 24.2346C14.0008 24.6001 13.9612 25.0022 14.0384 25.3902C14.1156 25.7782 14.3061 26.1345 14.5858 26.4142C14.8655 26.6939 15.2218 26.8844 15.6098 26.9616C15.9978 27.0388 16.3999 26.9991 16.7653 26.8478C17.1308 26.6964 17.4432 26.4401 17.6629 26.1112C17.8827 25.7823 18 25.3956 18 25C18 24.4696 17.7893 23.9609 17.4142 23.5858C17.0391 23.2107 16.5304 23 16 23Z" fill="#323260" fill-opacity="0.5"/>
</svg>
