<svg width="32" height="32" viewBox="0 0 32 32" fill="none" xmlns="http://www.w3.org/2000/svg">
<rect width="32" height="32" rx="16" fill="white"/>
<rect x="0.5" y="0.5" width="31" height="31" rx="15.5" stroke="#323260" stroke-opacity="0.5"/>
<path fill-rule="evenodd" clip-rule="evenodd" d="M15.9694 28C19.5343 28 22.737 26.4534 24.94 23.9962C23.9153 23.1078 22.3709 23.0539 21.2799 23.932L21.0715 24.0997C19.0739 25.7074 16.1633 25.47 14.4541 23.5599C13.522 22.5182 11.9255 22.4118 10.8627 23.3206L8.45968 25.3755C10.5179 27.0179 13.1287 28 15.9694 28ZM19.8701 22.1892C21.7727 20.6578 24.447 20.7128 26.2769 22.1918C27.3707 20.3841 28 18.2654 28 16C28 13.4828 27.223 11.1467 25.8952 9.21712C25.0392 9.03528 24.1113 9.24766 23.407 9.8702L23.2065 10.0474C21.2855 11.7454 18.367 11.6422 16.5713 9.81283C15.5919 8.8151 13.9922 8.78232 12.9726 9.73913L10.1762 12.3633L8.63782 10.7323L11.4343 8.10812C13.3442 6.31579 16.3408 6.37716 18.1754 8.24619C19.134 9.22277 20.6921 9.27786 21.7176 8.3714L21.918 8.19421C22.5405 7.64399 23.2608 7.27305 24.0148 7.07796C21.8834 5.16449 19.0628 4 15.9694 4C9.86222 4 4.8179 8.53908 4.04225 14.4195C5.89725 13.5316 8.18537 13.8733 9.69787 15.4182C10.6527 16.3935 12.1901 16.4964 13.2671 15.6572L14.8307 14.4388C16.7956 12.9075 19.5734 12.9816 21.4535 14.6155L24.4976 17.2609L23.0228 18.9493L19.9788 16.304C18.9097 15.3749 17.3302 15.3327 16.2128 16.2035L14.6493 17.4218C12.6706 18.9638 9.84589 18.7746 8.09161 16.9827C7.07151 15.9407 5.4031 15.9044 4.33835 16.901L4 17.2176C4.25321 19.724 5.27965 22.0027 6.83775 23.8129L9.40148 21.6205C11.3924 19.918 14.3829 20.1173 16.1291 22.0688C17.0415 23.0885 18.5953 23.2152 19.6617 22.357L19.8701 22.1892Z" fill="url(#paint0_linear_567_2663)"/>
<defs>
<linearGradient id="paint0_linear_567_2663" x1="10.48" y1="4" x2="15.9734" y2="28.0061" gradientUnits="userSpaceOnUse">
<stop stop-color="#880000"/>
<stop offset="1" stop-color="#F24822"/>
</linearGradient>
</defs>
</svg>
