<svg xmlns="http://www.w3.org/2000/svg" viewBox="0 0 45 45" width="45" height="45" preserveAspectRatio="xMidYMid meet" style="width: 100%; height: 100%; transform: translate3d(0px, 0px, 0px); content-visibility: visible;"><defs><clipPath id="__lottie_element_3755"><rect width="45" height="45" x="0" y="0"></rect></clipPath><mask id="__lottie_element_3758" mask-type="alpha"><g style="display: none;" transform="matrix(1,0,0,1,-22.625,-17.5)" opacity="1"><g opacity="1" transform="matrix(1,0,0,1,40,40)"><path fill="rgb(255,0,0)" fill-opacity="1" d=" M-10.012077331542969,-11.93421745300293 C-10.012077331542969,-11.93421745300293 10.012077331542969,-11.93421745300293 10.012077331542969,-11.93421745300293 C12.221076965332031,-11.93421745300293 14.012077331542969,-10.148124694824219 14.012077331542969,-7.945178985595703 C14.012077331542969,-7.945178985595703 14.008813858032227,-16.141679763793945 14.008813858032227,-16.141679763793945 C14.008813858032227,-13.93873405456543 12.217814445495605,-12.152644157409668 10.008813858032227,-12.152644157409668 C10.008813858032227,-12.152644157409668 -10.013622283935547,-12.152644157409668 -10.013622283935547,-12.152644157409668 C-12.22262191772461,-12.152644157409668 -14.013622283935547,-13.93873405456543 -14.013622283935547,-16.141679763793945 C-14.013622283935547,-16.141679763793945 -14.012077331542969,-7.945178985595703 -14.012077331542969,-7.945178985595703 C-14.012077331542969,-10.148124694824219 -12.221076965332031,-11.93421745300293 -10.012077331542969,-11.93421745300293z"></path></g></g></mask><mask id="__lottie_element_3773" mask-type="alpha"><g style="display: none;" transform="matrix(1,0,0,1,-22.625,-17.5)" opacity="1"><g opacity="1" transform="matrix(1,0,0,1,40,40)"><path fill="rgb(255,0,0)" fill-opacity="1" d=" M-10.012077331542969,-11.93421745300293 C-10.012077331542969,-11.93421745300293 10.012077331542969,-11.93421745300293 10.012077331542969,-11.93421745300293 C12.221076965332031,-11.93421745300293 14.012077331542969,-10.148124694824219 14.012077331542969,-7.945178985595703 C14.012077331542969,-7.945178985595703 14.008813858032227,-16.141679763793945 14.008813858032227,-16.141679763793945 C14.008813858032227,-13.93873405456543 12.217814445495605,-12.152644157409668 10.008813858032227,-12.152644157409668 C10.008813858032227,-12.152644157409668 -10.013622283935547,-12.152644157409668 -10.013622283935547,-12.152644157409668 C-12.22262191772461,-12.152644157409668 -14.013622283935547,-13.93873405456543 -14.013622283935547,-16.141679763793945 C-14.013622283935547,-16.141679763793945 -14.012077331542969,-7.945178985595703 -14.012077331542969,-7.945178985595703 C-14.012077331542969,-10.148124694824219 -12.221076965332031,-11.93421745300293 -10.012077331542969,-11.93421745300293z"></path></g></g></mask></defs><g clip-path="url(#__lottie_element_3755)"><g mask="url(#__lottie_element_3773)" style="display: none;"><g transform="matrix(1,0,0,1,-22.625,-17.5)" opacity="1"><g opacity="1" transform="matrix(1,0,0,1,40,40)"><path stroke-linecap="butt" stroke-linejoin="miter" fill-opacity="0" stroke-miterlimit="4" stroke="rgb(34,34,34)" stroke-opacity="1" stroke-width="2" d=" M-10,-12 C-10,-12 10,-12 10,-12 C12.208999633789062,-12 14,-10.208999633789062 14,-8 C14,-8 14,8 14,8 C14,10.208999633789062 12.208999633789062,12 10,12 C10,12 -10,12 -10,12 C-12.208999633789062,12 -14,10.208999633789062 -14,8 C-14,8 -14,-8 -14,-8 C-14,-10.208999633789062 -12.208999633789062,-12 -10,-12z"></path></g></g></g><g transform="matrix(1,0,0,1,-22.625,-17.5)" opacity="1" style="display: block;"><g opacity="1" transform="matrix(1,0,0,1,40,40)"><path stroke-linecap="butt" stroke-linejoin="miter" fill-opacity="0" stroke-miterlimit="4" stroke="rgb(34,34,34)" stroke-opacity="1" stroke-width="2" d=" M-10,-12 C-10,-12 10,-12 10,-12 C12.208999633789062,-12 14,-10.208999633789062 14,-8 C14,-8 14,8 14,8 C14,10.208999633789062 12.208999633789062,12 10,12 C10,12 -10,12 -10,12 C-12.208999633789062,12 -14,10.208999633789062 -14,8 C-14,8 -14,-8 -14,-8 C-14,-10.208999633789062 -12.208999633789062,-12 -10,-12z"></path></g></g><g transform="matrix(0.9391182065010071,0,0,0.9391182065010071,-20.189727783203125,-15.064727783203125)" opacity="1" style="display: none;"><g opacity="1" transform="matrix(1,0,0,1,40,40)"><path stroke-linecap="butt" stroke-linejoin="miter" fill-opacity="0" stroke-miterlimit="4" stroke="rgb(34,34,34)" stroke-opacity="1" stroke-width="2" d=" M-2,11.432707786560059 C-2,11.432707786560059 -2,11.659493446350098 -2,11.659493446350098 C-2,11.659493446350098 2,11.659493446350098 2,11.659493446350098 C2,11.659493446350098 2,11.432707786560059 2,11.432707786560059 C2,11.432707786560059 6,11.432707786560059 6,11.432707786560059 C6,11.432707786560059 6.134493350982666,11.20592212677002 6.134493350982666,11.20592212677002 C6.134493350982666,11.20592212677002 2.2150237560272217,11.20592212677002 2.2150237560272217,11.20592212677002 C2.2150237560272217,11.20592212677002 2.3496885299682617,10.978307723999023 2.3496885299682617,10.978307723999023 C2.3496885299682617,10.978307723999023 -2.3496885299682617,10.978307723999023 -2.3496885299682617,10.978307723999023 C-2.3496885299682617,10.978307723999023 -2.2150237560272217,11.20592212677002 -2.2150237560272217,11.20592212677002 C-2.2150237560272217,11.20592212677002 -6.134493350982666,11.20592212677002 -6.134493350982666,11.20592212677002 C-6.134493350982666,11.20592212677002 -6,11.432707786560059 -6,11.432707786560059 C-6,11.432707786560059 -2,11.432707786560059 -2,11.432707786560059z"></path></g></g><g style="display: block;" transform="matrix(1,0,0,1,-22.625,-17.5)" opacity="1"><g opacity="1" transform="matrix(1,0,0,1,40,40)"><path stroke-linecap="butt" stroke-linejoin="miter" fill-opacity="0" stroke-miterlimit="4" stroke="rgb(34,34,34)" stroke-opacity="1" stroke-width="2" d=" M-2,2 C-2.062000036239624,2.875 -2,6 -2,6 C-2,6 2,6 2,6 C2,6 2,2 2,2 C2,2 6,2 6,2 C6,2 6,-2 6,-2 C6,-2 2,-2 2,-2 C2,-2 2,-6 2,-6 C2,-6 -2,-6 -2,-6 C-2,-6 -2,-2 -2,-2 C-2,-2 -6,-2 -6,-2 C-6,-2 -6,2 -6,2 C-6,2 -3,1.937999963760376 -2,2z"></path></g></g><g mask="url(#__lottie_element_3758)" style="display: none;"><g transform="matrix(1,0,0,1,-62.625,-57.5)" opacity="1"><g opacity="1" transform="matrix(1,0,0,1,0,0)"><g opacity="1" transform="matrix(1,0,0,1,80,80)"><path stroke-linecap="butt" stroke-linejoin="round" fill-opacity="0" stroke="rgb(34,34,34)" stroke-opacity="1" stroke-width="2" d=" M-3,-4 C-3,-4 3,-4 3,-4 C3,-4 3,4 3,4 C3,4 -3,4 -3,4 C-3,4 -3,-4 -3,-4z"></path></g><g opacity="1" transform="matrix(1,0,0,1,80,80)"><path stroke-linecap="butt" stroke-linejoin="round" fill-opacity="0" stroke="rgb(34,34,34)" stroke-opacity="1" stroke-width="2" d=" M-11,-4 C-11,-4 11,-4 11,-4 C11,-4 11,4 11,4 C11,4 -11,4 -11,4 C-11,4 -11,-4 -11,-4z"></path></g><g opacity="1" transform="matrix(1,0,0,1,80,80)"><path fill="rgb(34,34,34)" fill-opacity="1" d=" M-7,-1 C-6.447999954223633,-1 -6,-0.5519999861717224 -6,0 C-6,0.5519999861717224 -6.447999954223633,1 -7,1 C-7.552000045776367,1 -8,0.5519999861717224 -8,0 C-8,-0.5519999861717224 -7.552000045776367,-1 -7,-1z M7,-1 C7.552000045776367,-1 8,-0.5519999861717224 8,0 C8,0.5519999861717224 7.552000045776367,1 7,1 C6.447999954223633,1 6,0.5519999861717224 6,0 C6,-0.5519999861717224 6.447999954223633,-1 7,-1z"></path></g></g></g></g></g></svg>