<svg xmlns="http://www.w3.org/2000/svg" viewBox="0 0 45 45" width="45" height="45" preserveAspectRatio="xMidYMid meet" style="width: 100%; height: 100%; transform: translate3d(0px, 0px, 0px); content-visibility: visible;"><defs><clipPath id="__lottie_element_3740"><rect width="45" height="45" x="0" y="0"></rect></clipPath></defs><g clip-path="url(#__lottie_element_3740)"><g transform="matrix(1,0,0,1,-26.75,-17.75)" opacity="1" style="display: block;"><g opacity="1" transform="matrix(1,0,0,1,40,44)"><path stroke-linecap="butt" stroke-linejoin="miter" fill-opacity="0" stroke-miterlimit="4" stroke="rgb(34,34,34)" stroke-opacity="1" stroke-width="2" d=" M0,-11 C3.313999891281128,-11 6,-8.314000129699707 6,-5 C6,-5 6,-5 6,-5 C6,-5 6,10 6,10 C6,10.552000045776367 5.552000045776367,11 5,11 C5,11 -5,11 -5,11 C-5.552000045776367,11 -6,10.552000045776367 -6,10 C-6,10 -6,-5 -6,-5 C-6,-5 -5.995999813079834,-5.224999904632568 -5.995999813079834,-5.224999904632568 C-5.877999782562256,-8.434000015258789 -3.23799991607666,-11 0,-11z"></path></g><g opacity="1" transform="matrix(1,0,0,1,33,47)"><path stroke-linecap="butt" stroke-linejoin="miter" fill-opacity="0" stroke-miterlimit="4" stroke="rgb(34,34,34)" stroke-opacity="1" stroke-width="2" d=" M-2,0 C-2,0 2,0 2,0 C2,0 -2,0 -2,0z"></path></g><g opacity="1" transform="matrix(1,0,0,1,40,31)"><path stroke-linecap="butt" stroke-linejoin="miter" fill-opacity="0" stroke-miterlimit="4" stroke="rgb(34,34,34)" stroke-opacity="1" stroke-width="2" d=" M0,-2 C0,-2 0,2 0,2 C0,2 0,-2 0,-2z"></path></g><g opacity="1" transform="matrix(1,0,0,1,38.5,40.5)"><path stroke-linecap="butt" stroke-linejoin="miter" fill-opacity="0" stroke-miterlimit="4" stroke="rgb(34,34,34)" stroke-opacity="1" stroke-width="2" d=" M8.5,-11.5 C8.5,-11.5 1.5,-11.5 1.5,-11.5 C-4.0229997634887695,-11.5 -8.5,-7.0229997634887695 -8.5,-1.5 C-8.5,-1.5 -8.5,11.5 -8.5,11.5"></path></g><g opacity="1" transform="matrix(1,0,0,1,42.5,27)"><path stroke-linecap="butt" stroke-linejoin="miter" fill-opacity="0" stroke-miterlimit="4" stroke="rgb(34,34,34)" stroke-opacity="1" stroke-width="2" d=" M-2.5,2 C-2.5,2 2.5,-2 2.5,-2 C2.5,-2 -2.5,2 -2.5,2z"></path></g><g opacity="1" transform="matrix(1,0,0,1,40,29)"><path fill="rgb(255,255,255)" fill-opacity="1" d=" M0,2 C1.1050000190734863,2 2,1.1050000190734863 2,0 C2,-1.1050000190734863 1.1050000190734863,-2 0,-2 C-1.1050000190734863,-2 -2,-1.1050000190734863 -2,0 C-2,1.1050000190734863 -1.1050000190734863,2 0,2z"></path><path stroke-linecap="butt" stroke-linejoin="miter" fill-opacity="0" stroke-miterlimit="4" stroke="rgb(34,34,34)" stroke-opacity="1" stroke-width="2" d=" M0,2 C1.1050000190734863,2 2,1.1050000190734863 2,0 C2,-1.1050000190734863 1.1050000190734863,-2 0,-2 C-1.1050000190734863,-2 -2,-1.1050000190734863 -2,0 C-2,1.1050000190734863 -1.1050000190734863,2 0,2z"></path></g></g><g style="display: none;"><g><path stroke-linecap="butt" stroke-linejoin="miter" fill-opacity="0" stroke-miterlimit="4"></path></g></g><g style="display: none;"><g><path stroke-linecap="butt" stroke-linejoin="miter" fill-opacity="0" stroke-miterlimit="4"></path></g></g><g style="display: none;"><g><path stroke-linecap="butt" stroke-linejoin="miter" fill-opacity="0" stroke-miterlimit="4"></path></g></g></g></svg>