<svg xmlns="http://www.w3.org/2000/svg" viewBox="0 0 45 45" width="45" height="45" preserveAspectRatio="xMidYMid meet" style="width: 100%; height: 100%; transform: translate3d(0px, 0px, 0px); content-visibility: visible;"><defs><clipPath id="__lottie_element_3590"><rect width="45" height="45" x="0" y="0"></rect></clipPath><clipPath id="__lottie_element_3592"><path fill="#ffffff" clip-rule="nonzero"></path><path fill="#ffffff" clip-rule="nonzero"></path></clipPath><clipPath id="__lottie_element_3595"><path fill="#ffffff" clip-rule="nonzero"></path><path fill="#ffffff" clip-rule="nonzero"></path></clipPath><clipPath id="__lottie_element_3598"><path fill="#ffffff" clip-rule="nonzero"></path><path fill="#ffffff" clip-rule="nonzero"></path></clipPath><clipPath id="__lottie_element_3601"><path fill="#ffffff" clip-rule="nonzero"></path><path fill="#ffffff" clip-rule="nonzero"></path></clipPath><clipPath id="__lottie_element_3604"><path fill="#ffffff" clip-rule="nonzero"></path><path fill="#ffffff" clip-rule="nonzero"></path></clipPath><clipPath id="__lottie_element_3607"><path fill="#ffffff" clip-rule="nonzero"></path><path fill="#ffffff" clip-rule="nonzero"></path></clipPath><clipPath id="__lottie_element_3610"><path fill="#ffffff" clip-rule="nonzero"></path><path fill="#ffffff" clip-rule="nonzero"></path></clipPath></defs><g clip-path="url(#__lottie_element_3590)"><g transform="matrix(1.0000008344650269,0,0,1.0000008344650269,-24.00003433227539,-18.374406814575195)" opacity="1" style="display: block;"><g opacity="1" transform="matrix(1,0,0,1,51,50)"><path stroke-linecap="butt" stroke-linejoin="miter" fill-opacity="0" stroke-miterlimit="4" stroke="rgb(34,34,34)" stroke-opacity="1" stroke-width="2" d=" M-2,-2 C-2,-2 2,-2 2,-2 C2,-2 2,1 2,1 C2,1.5520000457763672 1.5520000457763672,2 1,2 C1,2 -1,2 -1,2 C-1.5520000457763672,2 -2,1.5520000457763672 -2,1 C-2,1 -2,-2 -2,-2 C-2,-2 -2,-2 -2,-2z"></path></g><g opacity="1" transform="matrix(1,0,0,1,29,50)"><path stroke-linecap="butt" stroke-linejoin="miter" fill-opacity="0" stroke-miterlimit="4" stroke="rgb(34,34,34)" stroke-opacity="1" stroke-width="2" d=" M-2,-2 C-2,-2 2,-2 2,-2 C2,-2 2,1 2,1 C2,1.5520000457763672 1.5520000457763672,2 1,2 C1,2 -1,2 -1,2 C-1.5520000457763672,2 -2,1.5520000457763672 -2,1 C-2,1 -2,-2 -2,-2 C-2,-2 -2,-2 -2,-2z"></path></g></g><g transform="matrix(1.0000008344650269,0,0,1.0000008344650269,-24.00003433227539,-18.374406814575195)" opacity="1" style="display: block;"><g opacity="1" transform="matrix(1,0,0,1,40,43)"><path stroke-linecap="butt" stroke-linejoin="miter" fill-opacity="0" stroke-miterlimit="4" stroke="rgb(34,34,34)" stroke-opacity="1" stroke-width="2" d=" M-9,-5 C-9,-5 9,-5 9,-5 C11.208999633789062,-5 13,-3.2090001106262207 13,-1 C13,-1 13,4 13,4 C13,4.552000045776367 12.552000045776367,5 12,5 C12,5 -12,5 -12,5 C-12.552000045776367,5 -13,4.552000045776367 -13,4 C-13,4 -13,-1 -13,-1 C-13,-3.2090001106262207 -11.208999633789062,-5 -9,-5z"></path></g><g opacity="1" transform="matrix(1,0,0,1,49,43)"><path fill="rgb(34,34,34)" fill-opacity="1" d=" M0,-1 C0.5519999861717224,-1 1,-0.5519999861717224 1,0 C1,0.5519999861717224 0.5519999861717224,1 0,1 C-0.5519999861717224,1 -1,0.5519999861717224 -1,0 C-1,-0.5519999861717224 -0.5519999861717224,-1 0,-1z"></path></g><g opacity="1" transform="matrix(1,0,0,1,31,43)"><path fill="rgb(34,34,34)" fill-opacity="1" d=" M0,-1 C0.5519999861717224,-1 1,-0.5519999861717224 1,0 C1,0.5519999861717224 0.5519999861717224,1 0,1 C-0.5519999861717224,1 -1,0.5519999861717224 -1,0 C-1,-0.5519999861717224 -0.5519999861717224,-1 0,-1z"></path></g><g opacity="1" transform="matrix(1,0,0,1,40,34)"><path stroke-linecap="butt" stroke-linejoin="miter" fill-opacity="0" stroke-miterlimit="4" stroke="rgb(34,34,34)" stroke-opacity="1" stroke-width="2" d=" M-7.307000160217285,-4 C-7.307000160217285,-4 7.307000160217285,-4 7.307000160217285,-4 C7.723999977111816,-4 8.097000122070312,-3.740999937057495 8.243000030517578,-3.3510000705718994 C8.243000030517578,-3.3510000705718994 11,4 11,4 C11,4 11,4 11,4 C11,4 -11,4 -11,4 C-11,4 -8.243000030517578,-3.3510000705718994 -8.243000030517578,-3.3510000705718994 C-8.097000122070312,-3.740999937057495 -7.723999977111816,-4 -7.307000160217285,-4z"></path></g><g opacity="1" transform="matrix(1,0,0,1,27.5,36)"><path fill="rgb(34,34,34)" fill-opacity="1" d=" M-1.5,-1 C-1.5,-1 1.5,-1 1.5,-1 C1.5,-1 1.5,1 1.5,1 C1.5,1 -1.5,1 -1.5,1 C-1.5,1 -1.5,-1 -1.5,-1z"></path></g><g opacity="1" transform="matrix(1,0,0,1,52.5,36)"><path fill="rgb(34,34,34)" fill-opacity="1" d=" M-1.5,-1 C-1.5,-1 1.5,-1 1.5,-1 C1.5,-1 1.5,1 1.5,1 C1.5,1 -1.5,1 -1.5,1 C-1.5,1 -1.5,-1 -1.5,-1z"></path></g><g opacity="1" transform="matrix(1,0,0,1,40,43)"><path stroke-linecap="butt" stroke-linejoin="miter" fill-opacity="0" stroke-miterlimit="4" stroke="rgb(34,34,34)" stroke-opacity="1" stroke-width="2" d=" M-6,0 C-6,0 6,0 6,0"></path></g></g><g clip-path="url(#__lottie_element_3610)" style="display: none;"><g><path></path></g></g><g clip-path="url(#__lottie_element_3607)" style="display: none;"><g><path></path></g></g><g clip-path="url(#__lottie_element_3604)" style="display: none;"><g><path></path></g></g><g clip-path="url(#__lottie_element_3601)" style="display: none;"><g><path></path></g></g><g clip-path="url(#__lottie_element_3598)" style="display: none;"><g><path></path></g></g><g clip-path="url(#__lottie_element_3595)" style="display: none;"><g><path></path></g></g><g clip-path="url(#__lottie_element_3592)" style="display: none;"><g><path></path></g></g></g></svg>