<svg xmlns="http://www.w3.org/2000/svg" viewBox="0 0 45 45" width="45" height="45" preserveAspectRatio="xMidYMid meet" style="width: 100%; height: 100%; transform: translate3d(0px, 0px, 0px); content-visibility: visible;"><defs><clipPath id="__lottie_element_2610"><rect width="35" height="35" x="0" y="0"></rect></clipPath><filter id="__lottie_element_2619" filterUnits="objectBoundingBox" x="0%" y="0%" width="100%" height="100%"><feComponentTransfer in="SourceGraphic"><feFuncA type="table" tableValues="1.0 0.0"></feFuncA></feComponentTransfer></filter><mask id="__lottie_element_2618" mask-type="alpha"><g filter="url(#__lottie_element_2619)"><rect width="35" height="35" x="0" y="0" fill="#ffffff" opacity="0"></rect><g transform="matrix(1,0,0,1,8.5,13.99799919128418)" opacity="1" style="display: block;"><path fill="rgb(255,0,0)" fill-opacity="1" d=" M5,17 C5,17 5,5.99 5,5.99 C5,5.44 5.44,5 5.99,5 C5.99,5 12,5 12,5 C12.11,5 12.21,5.02 12.3,5.04 C12.7,5.17 12.99,5.55 12.99,5.99 C12.99,5.99 12.99,17 12.99,17"></path><g opacity="1" transform="matrix(1,0,0,1,8.996000289916992,10.998000144958496)"><path stroke-linecap="round" stroke-linejoin="round" fill-opacity="0" stroke="rgb(34,34,34)" stroke-opacity="1" stroke-width="2" d=" M-3.996000051498413,5.999000072479248 C-3.996000051498413,5.999000072479248 -3.996000051498413,-5.007999897003174 -3.996000051498413,-5.007999897003174 C-3.996000051498413,-5.554999828338623 -3.552999973297119,-5.999000072479248 -3.006999969482422,-5.999000072479248 C-3.006999969482422,-5.999000072479248 3.006999969482422,-5.999000072479248 3.006999969482422,-5.999000072479248 C3.109999895095825,-5.999000072479248 3.2090001106262207,-5.982999801635742 3.302000045776367,-5.953999996185303 C3.7039999961853027,-5.828999996185303 3.996000051498413,-5.452000141143799 3.996000051498413,-5.007999897003174 C3.996000051498413,-5.007999897003174 3.996000051498413,5.999000072479248 3.996000051498413,5.999000072479248"></path></g></g></g></mask></defs><g clip-path="url(#__lottie_element_2610)"><g transform="matrix(1,0,0,1,1.5069999694824219,9.33899974822998)" opacity="1" style="display: block;"><g opacity="1" transform="matrix(1,0,0,1,15.994999885559082,13.32800006866455)"><path stroke-linecap="round" stroke-linejoin="round" fill-opacity="0" stroke="rgb(34,34,34)" stroke-opacity="1" stroke-width="2" d=" M-10.994999885559082,-8.32800006866455 C-10.994999885559082,-8.32800006866455 -10.994999885559082,7.440000057220459 -10.994999885559082,7.440000057220459 C-10.994999885559082,7.929999828338623 -10.597000122070312,8.32800006866455 -10.107000350952148,8.32800006866455 C-10.107000350952148,8.32800006866455 10.107000350952148,8.32800006866455 10.107000350952148,8.32800006866455 C10.597999572753906,8.32800006866455 10.994999885559082,7.929999828338623 10.994999885559082,7.440000057220459 C10.994999885559082,7.440000057220459 10.994999885559082,-8.32800006866455 10.994999885559082,-8.32800006866455"></path></g></g><g mask="url(#__lottie_element_2618)" style="display: block;"><g transform="matrix(1,0,0,1,8.5,13.99799919128418)" opacity="1"><g opacity="1" transform="matrix(1,0,0,1,8.996000289916992,10.998000144958496)"><path stroke-linecap="round" stroke-linejoin="round" fill-opacity="0" stroke="rgb(34,34,34)" stroke-opacity="1" stroke-width="2" d=" M-0.7570000290870667,-5.999000072479248 C-0.7570000290870667,-5.999000072479248 3.006999969482422,-5.999000072479248 3.006999969482422,-5.999000072479248 C3.109999895095825,-5.999000072479248 3.2090001106262207,-5.982999801635742 3.302000045776367,-5.953999996185303 C3.7039999961853027,-5.828999996185303 3.996000051498413,-5.452000141143799 3.996000051498413,-5.007999897003174 C3.996000051498413,-5.007999897003174 3.996000051498413,5.999000072479248 3.996000051498413,5.999000072479248"></path></g></g></g><g transform="matrix(1,0,0,1,8.5,13.99799919128418)" opacity="1" style="display: block;"><g opacity="1" transform="matrix(1,0,0,1,8.996000289916992,10.998000144958496)"><path stroke-linecap="round" stroke-linejoin="round" fill-opacity="0" stroke="rgb(34,34,34)" stroke-opacity="1" stroke-width="2" d=" M-3.996000051498413,5.999000072479248 C-3.996000051498413,5.999000072479248 -3.996000051498413,-5.007999897003174 -3.996000051498413,-5.007999897003174 C-3.996000051498413,-5.554999828338623 -3.552999973297119,-5.999000072479248 -3.006999969482422,-5.999000072479248 C-3.006999969482422,-5.999000072479248 3.006999969482422,-5.999000072479248 3.006999969482422,-5.999000072479248 C3.109999895095825,-5.999000072479248 3.2090001106262207,-5.982999801635742 3.302000045776367,-5.953999996185303 C3.7039999961853027,-5.828999996185303 3.996000051498413,-5.452000141143799 3.996000051498413,-5.007999897003174 C3.996000051498413,-5.007999897003174 3.996000051498413,5.999000072479248 3.996000051498413,5.999000072479248"></path></g></g><g transform="matrix(1,0,0,1,-2,-1.128000259399414)" opacity="1" style="display: block;"><g opacity="1" transform="matrix(1,0,0,1,19.5,11.814000129699707)"><path stroke-linecap="butt" stroke-linejoin="miter" fill-opacity="0" stroke-miterlimit="10" stroke="rgb(34,34,34)" stroke-opacity="1" stroke-width="2" d=" M-14.5,6.814000129699707 C-14.5,6.814000129699707 -1.496999979019165,-5.997000217437744 -1.496999979019165,-5.997000217437744 C-0.6669999957084656,-6.815000057220459 0.6650000214576721,-6.815000057220459 1.4950000047683716,-5.997000217437744 C1.4950000047683716,-5.997000217437744 14.5,6.814000129699707 14.5,6.814000129699707"></path></g></g></g></svg>