<svg xmlns="http://www.w3.org/2000/svg" viewBox="0 0 45 45" width="45" height="45" preserveAspectRatio="xMidYMid meet" style="width: 100%; height: 100%; transform: translate3d(0px, 0px, 0px); content-visibility: visible;"><defs><clipPath id="__lottie_element_3436"><rect width="45" height="45" x="0" y="0"></rect></clipPath><mask id="__lottie_element_3447" mask-type="alpha"><g style="display: none;"><g><path></path></g></g></mask><mask id="__lottie_element_3453" mask-type="alpha"><g style="display: none;"><g><path></path></g></g></mask></defs><g clip-path="url(#__lottie_element_3436)"><g transform="matrix(1,0,0,1,-23.5,-17.5)" opacity="1" style="display: block;"><g opacity="1" transform="matrix(1,0,0,1,40,40)"></g><g opacity="1" transform="matrix(1,0,0,1,40,40)"><path stroke-linecap="butt" stroke-linejoin="miter" fill-opacity="0" stroke-miterlimit="4" stroke="rgb(34,34,34)" stroke-opacity="1" stroke-width="2" d=" M-12,-13 C-12,-13 12,-13 12,-13 C12.552000045776367,-13 13,-12.552000045776367 13,-12 C13,-12 13,12 13,12 C13,12.552000045776367 12.552000045776367,13 12,13 C12,13 -12,13 -12,13 C-12.552000045776367,13 -13,12.552000045776367 -13,12 C-13,12 -13,-12 -13,-12 C-13,-12.552000045776367 -12.552000045776367,-13 -12,-13z"></path></g><g opacity="1" transform="matrix(1,0,0,1,40,35)"><path stroke-linecap="butt" stroke-linejoin="miter" fill-opacity="0" stroke-miterlimit="4" stroke="rgb(34,34,34)" stroke-opacity="1" stroke-width="2" d=" M13,0 C13,0 -13,0 -13,0"></path></g><g opacity="1" transform="matrix(1,0,0,1,49,31)"><path fill="rgb(0,0,0)" fill-opacity="1" d=" M0,-1 C0.5519999861717224,-1 1,-0.5519999861717224 1,0 C1,0.5519999861717224 0.5519999861717224,1 0,1 C-0.5519999861717224,1 -1,0.5519999861717224 -1,0 C-1,-0.5519999861717224 -0.5519999861717224,-1 0,-1z"></path></g><g opacity="1" transform="matrix(1,0,0,1,43,31)"><path fill="rgb(0,0,0)" fill-opacity="1" d=" M0,-1 C0.5519999861717224,-1 1,-0.5519999861717224 1,0 C1,0.5519999861717224 0.5519999861717224,1 0,1 C-0.5519999861717224,1 -1,0.5519999861717224 -1,0 C-1,-0.5519999861717224 -0.5519999861717224,-1 0,-1z"></path></g><g opacity="1" transform="matrix(1,0,0,1,37,31)"><path fill="rgb(0,0,0)" fill-opacity="1" d=" M0,-1 C0.5519999861717224,-1 1,-0.5519999861717224 1,0 C1,0.5519999861717224 0.5519999861717224,1 0,1 C-0.5519999861717224,1 -1,0.5519999861717224 -1,0 C-1,-0.5519999861717224 -0.5519999861717224,-1 0,-1z"></path></g><g opacity="1" transform="matrix(1,0,0,1,31,31)"><path fill="rgb(0,0,0)" fill-opacity="1" d=" M0,-1 C0.5519999861717224,-1 1,-0.5519999861717224 1,0 C1,0.5519999861717224 0.5519999861717224,1 0,1 C-0.5519999861717224,1 -1,0.5519999861717224 -1,0 C-1,-0.5519999861717224 -0.5519999861717224,-1 0,-1z"></path></g></g><g mask="url(#__lottie_element_3453)" style="display: none;"><g><g></g><g><path stroke-linecap="butt" stroke-linejoin="miter" fill-opacity="0" stroke-miterlimit="4"></path></g><g><path stroke-linecap="butt" stroke-linejoin="miter" fill-opacity="0" stroke-miterlimit="4"></path></g><g><path></path></g><g><path></path></g><g><path></path></g><g><path></path></g></g></g><g mask="url(#__lottie_element_3447)" style="display: none;"><g><g><path stroke-linecap="butt" stroke-linejoin="round" fill-opacity="0"></path></g></g></g><g style="display: none;"><g></g><g><path stroke-linecap="butt" stroke-linejoin="miter" fill-opacity="0" stroke-miterlimit="4"></path></g><g><path stroke-linecap="butt" stroke-linejoin="miter" fill-opacity="0" stroke-miterlimit="4"></path></g><g><path></path></g><g><path></path></g><g><path></path></g><g><path></path></g></g><g style="display: none;"><g><path stroke-linecap="butt" stroke-linejoin="miter" fill-opacity="0" stroke-miterlimit="4"></path></g><g><path stroke-linecap="butt" stroke-linejoin="miter" fill-opacity="0" stroke-miterlimit="4"></path></g></g><g transform="matrix(1,0,0,1,-23.5,-17.5)" opacity="1" style="display: block;"><g opacity="1" transform="matrix(1,0,0,1,40,44)"><path stroke-linecap="butt" stroke-linejoin="miter" fill-opacity="0" stroke-miterlimit="4" stroke="rgb(34,34,34)" stroke-opacity="1" stroke-width="2" d=" M-9,-5 C-9,-5 9,-5 9,-5 C9,-5 9,5 9,5 C9,5 -9,5 -9,5 C-9,5 -9,-5 -9,-5z"></path></g><g opacity="1" transform="matrix(1,0,0,1,40,35)"><path stroke-linecap="butt" stroke-linejoin="miter" fill-opacity="0" stroke-miterlimit="4" stroke="rgb(34,34,34)" stroke-opacity="1" stroke-width="2" d=" M13,0 C13,0 -13,0 -13,0"></path></g></g></g></svg>