<svg xmlns="http://www.w3.org/2000/svg" viewBox="0 0 45 45" width="45" height="45" preserveAspectRatio="xMidYMid meet" style="width: 100%; height: 100%; transform: translate3d(0px, 0px, 0px); content-visibility: visible;"><defs><clipPath id="__lottie_element_3254"><rect width="45" height="45" x="0" y="0"></rect></clipPath><clipPath id="__lottie_element_3260"><path d="M0,0 L80,0 L80,80 L0,80z"></path></clipPath><clipPath id="__lottie_element_3267"><path d="M0,0 L80,0 L80,80 L0,80z"></path></clipPath></defs><g clip-path="url(#__lottie_element_3254)"><g clip-path="url(#__lottie_element_3267)" transform="matrix(1,0,0,1,-25,-17.625)" opacity="1" style="display: block;"><g transform="matrix(1,0,0,1,0,0)" opacity="1" style="display: block;"><g opacity="1" transform="matrix(1,0,0,1,0,0)"><g opacity="1" transform="matrix(1,0,0,1,40,35)"><path stroke-linecap="butt" stroke-linejoin="miter" fill-opacity="0" stroke-miterlimit="4" stroke="rgb(34,34,34)" stroke-opacity="1" stroke-width="2" d=" M0,-9 C4.418000221252441,-9 8,-5.418000221252441 8,-1 C8,-1 8,9 8,9 C8,9 0,9 0,9 C0,9 0,-5.875 0,-9z M-0.08299999684095383,1 C-0.08299999684095383,1 8,1 8,1 M0,-9.925999641418457 C0,-9.925999641418457 0,-7.125 0,-7.125 C0,-7.125 0,9 0,9"></path></g></g></g></g><g clip-path="url(#__lottie_element_3260)" transform="matrix(-1,0,0,1,55,-17.625)" opacity="1" style="display: block;"><g transform="matrix(1,0,0,1,0,0)" opacity="1" style="display: block;"><g opacity="1" transform="matrix(1,0,0,1,0,0)"><g opacity="1" transform="matrix(1,0,0,1,40,35)"><path stroke-linecap="butt" stroke-linejoin="miter" fill-opacity="0" stroke-miterlimit="4" stroke="rgb(34,34,34)" stroke-opacity="1" stroke-width="2" d=" M0,-9 C4.418000221252441,-9 8,-5.418000221252441 8,-1 C8,-1 8,9 8,9 C8,9 0,9 0,9 C0,9 0,-5.875 0,-9z M-0.08299999684095383,1 C-0.08299999684095383,1 8,1 8,1 M0,-9.925999641418457 C0,-9.925999641418457 0,-7.125 0,-7.125 C0,-7.125 0,9 0,9"></path></g></g></g></g><g transform="matrix(1,0,0,1,-25,-17.625)" opacity="1" style="display: block;"><g opacity="1" transform="matrix(1,0,0,1,0,0)"><g opacity="1" transform="matrix(1,0,0,1,50,49)"><path stroke-linecap="butt" stroke-linejoin="miter" fill-opacity="0" stroke-miterlimit="4" stroke="rgb(34,34,34)" stroke-opacity="1" stroke-width="2" d=" M0,-5 C0,-5 0,5 0,5"></path></g><g opacity="1" transform="matrix(1,0,0,1,46,49)"><path stroke-linecap="butt" stroke-linejoin="miter" fill-opacity="0" stroke-miterlimit="4" stroke="rgb(34,34,34)" stroke-opacity="1" stroke-width="2" d=" M0,-5 C0,-5 0,5 0,5"></path></g><g opacity="1" transform="matrix(1,0,0,1,42,49)"><path stroke-linecap="butt" stroke-linejoin="miter" fill-opacity="0" stroke-miterlimit="4" stroke="rgb(34,34,34)" stroke-opacity="1" stroke-width="2" d=" M0,-5 C0,-5 0,5 0,5"></path></g><g opacity="1" transform="matrix(1,0,0,1,38,49)"><path stroke-linecap="butt" stroke-linejoin="miter" fill-opacity="0" stroke-miterlimit="4" stroke="rgb(34,34,34)" stroke-opacity="1" stroke-width="2" d=" M0,-5 C0,-5 0,5 0,5"></path></g><g opacity="1" transform="matrix(1,0,0,1,34,49)"><path stroke-linecap="butt" stroke-linejoin="miter" fill-opacity="0" stroke-miterlimit="4" stroke="rgb(34,34,34)" stroke-opacity="1" stroke-width="2" d=" M0,-5 C0,-5 0,5 0,5"></path></g><g opacity="1" transform="matrix(1,0,0,1,30,49)"><path stroke-linecap="butt" stroke-linejoin="miter" fill-opacity="0" stroke-miterlimit="4" stroke="rgb(34,34,34)" stroke-opacity="1" stroke-width="2" d=" M0,-5 C0,-5 0,5 0,5"></path></g><g opacity="1" transform="matrix(1,0,0,1,40,54)"><path stroke-linecap="butt" stroke-linejoin="miter" fill-opacity="0" stroke-miterlimit="4" stroke="rgb(34,34,34)" stroke-opacity="1" stroke-width="2" d=" M-13,0 C-13,0 13,0 13,0"></path></g><g opacity="1" transform="matrix(1,0,0,1,40,44)"><path stroke-linecap="butt" stroke-linejoin="miter" fill-opacity="0" stroke-miterlimit="4" stroke="rgb(34,34,34)" stroke-opacity="1" stroke-width="2" d=" M-13,0 C-13,0 13,0 13,0"></path></g></g></g></g></svg>