<svg xmlns="http://www.w3.org/2000/svg" viewBox="0 0 45 45" width="45" height="45" preserveAspectRatio="xMidYMid meet" style="width: 100%; height: 100%; transform: translate3d(0px, 0px, 0px); content-visibility: visible;"><defs><clipPath id="__lottie_element_3231"><rect width="45" height="45" x="0" y="0"></rect></clipPath></defs><g clip-path="url(#__lottie_element_3231)"><g transform="matrix(0.7009999752044678,0,0,0.7009999752044678,17.437000274658203,22.589000701904297)" opacity="1" style="display: block;"><g opacity="1" transform="matrix(2,0,0,2,0,0)"><path fill="rgb(34,34,34)" fill-opacity="1" d=" M-1.437999963760376,5.390999794006348 C-1.437999963760376,4.5970001220703125 -0.7940000295639038,3.953000068664551 0,3.953000068664551 C0.7940000295639038,3.953000068664551 1.437999963760376,4.5970001220703125 1.437999963760376,5.390999794006348 C1.437999963760376,6.184999942779541 0.7940000295639038,6.828000068664551 0,6.828000068664551 C-0.7940000295639038,6.828000068664551 -1.437999963760376,6.184999942779541 -1.437999963760376,5.390999794006348z M2.875,5.390999794006348 C2.875,3.802999973297119 1.5880000591278076,2.5160000324249268 0,2.5160000324249268 C-1.5880000591278076,2.5160000324249268 -2.875,3.802999973297119 -2.875,5.390999794006348 C-2.875,6.979000091552734 -1.5880000591278076,8.265999794006348 0,8.265999794006348 C1.5880000591278076,8.265999794006348 2.875,6.979000091552734 2.875,5.390999794006348z"></path></g></g><g transform="matrix(0.6844186186790466,0,0,0.6844186186790466,17.53251838684082,19.639440536499023)" opacity="0.1386942857418744" style="display: none;"><g opacity="1" transform="matrix(2,0,0,2,0,0)"><path fill="rgb(34,34,34)" fill-opacity="1" d=" M5.781000137329102,2.484999895095825 C4.7170000076293945,0.3709999918937683 2.5280001163482666,-1.0779999494552612 0,-1.0779999494552612 C0,-1.0779999494552612 0,-1.0779999494552612 0,-1.0779999494552612 C-2.5280001163482666,-1.0779999494552612 -4.7170000076293945,0.3720000088214874 -5.781000137329102,2.484999895095825 C-5.781000137329102,2.484999895095825 -4.692999839782715,3.572999954223633 -4.692999839782715,3.572999954223633 C-3.9639999866485596,1.6929999589920044 -2.138000011444092,0.35899999737739563 0,0.35899999737739563 C2.138000011444092,0.35899999737739563 3.9639999866485596,1.6929999589920044 4.692999839782715,3.572999954223633 C4.692999839782715,3.572999954223633 5.781000137329102,2.484999895095825 5.781000137329102,2.484999895095825z"></path></g></g><g transform="matrix(0.6669554710388184,0,0,0.6669554710388184,17.63311195373535,19.777938842773438)" opacity="0.13963714287962206" style="display: none;"><g opacity="1" transform="matrix(2,0,0,2,0,0)"><path fill="rgb(34,34,34)" fill-opacity="1" d=" M8.406999588012695,-0.14100000262260437 C6.60699987411499,-2.871000051498413 3.5139999389648438,-4.671999931335449 0,-4.671999931335449 C0,-4.671999931335449 0,-4.671999931335449 0,-4.671999931335449 C-3.5139999389648438,-4.671999931335449 -6.60699987411499,-2.869999885559082 -8.406999588012695,-0.14100000262260437 C-8.406999588012695,-0.14100000262260437 -7.364999771118164,0.8999999761581421 -7.364999771118164,0.8999999761581421 C-5.849999904632568,-1.5789999961853027 -3.118000030517578,-3.2339999675750732 0,-3.2339999675750732 C3.11899995803833,-3.2339999675750732 5.85099983215332,-1.5789999961853027 7.366000175476074,0.9010000228881836 C7.366000175476074,0.9010000228881836 8.406999588012695,-0.14100000262260437 8.406999588012695,-0.14100000262260437z"></path></g></g><g transform="matrix(0.6476629376411438,0,0,0.6476629376411438,17.744239807128906,19.915077209472656)" opacity="0.139745714315346" style="display: none;"><g opacity="1" transform="matrix(2,0,0,2,0,0)"><path fill="rgb(34,34,34)" fill-opacity="1" d=" M10.987000465393066,-2.7209999561309814 C8.5,-6.084000110626221 4.504000186920166,-8.265999794006348 0,-8.265999794006348 C0,-8.265999794006348 0,-8.265999794006348 0,-8.265999794006348 C-4.504000186920166,-8.265999794006348 -8.5,-6.084000110626221 -10.987000465393066,-2.7209999561309814 C-10.987000465393066,-2.7209999561309814 -9.956999778747559,-1.6929999589920044 -9.956999778747559,-1.6929999589920044 C-7.742000102996826,-4.801000118255615 -4.107999801635742,-6.828000068664551 0,-6.828000068664551 C4.107999801635742,-6.828000068664551 7.743000030517578,-4.801000118255615 9.958000183105469,-1.6920000314712524 C9.958000183105469,-1.6920000314712524 10.987000465393066,-2.7209999561309814 10.987000465393066,-2.7209999561309814z"></path></g></g><g style="display: block;" transform="matrix(0.7009999752044678,0,0,0.7009999752044678,17.437000274658203,22.589000701904297)" opacity="1"><g opacity="1" transform="matrix(2,0,0,2,0,0)"><path fill="rgb(34,34,34)" fill-opacity="1" d=" M5.781000137329102,2.484999895095825 C4.7170000076293945,0.3709999918937683 2.5280001163482666,-1.0779999494552612 0,-1.0779999494552612 C0,-1.0779999494552612 0,-1.0779999494552612 0,-1.0779999494552612 C-2.5280001163482666,-1.0779999494552612 -4.7170000076293945,0.3720000088214874 -5.781000137329102,2.484999895095825 C-5.781000137329102,2.484999895095825 -4.692999839782715,3.572999954223633 -4.692999839782715,3.572999954223633 C-3.9639999866485596,1.6929999589920044 -2.138000011444092,0.35899999737739563 0,0.35899999737739563 C2.138000011444092,0.35899999737739563 3.9639999866485596,1.6929999589920044 4.692999839782715,3.572999954223633 C4.692999839782715,3.572999954223633 5.781000137329102,2.484999895095825 5.781000137329102,2.484999895095825z"></path></g></g><g style="display: block;" transform="matrix(0.7009999752044678,0,0,0.7009999752044678,17.437000274658203,22.589000701904297)" opacity="1"><g opacity="1" transform="matrix(2,0,0,2,0,0)"><path fill="rgb(34,34,34)" fill-opacity="1" d=" M8.406999588012695,-0.14100000262260437 C6.60699987411499,-2.871000051498413 3.5139999389648438,-4.671999931335449 0,-4.671999931335449 C0,-4.671999931335449 0,-4.671999931335449 0,-4.671999931335449 C-3.5139999389648438,-4.671999931335449 -6.60699987411499,-2.869999885559082 -8.406999588012695,-0.14100000262260437 C-8.406999588012695,-0.14100000262260437 -7.364999771118164,0.8999999761581421 -7.364999771118164,0.8999999761581421 C-5.849999904632568,-1.5789999961853027 -3.118000030517578,-3.2339999675750732 0,-3.2339999675750732 C3.11899995803833,-3.2339999675750732 5.85099983215332,-1.5789999961853027 7.366000175476074,0.9010000228881836 C7.366000175476074,0.9010000228881836 8.406999588012695,-0.14100000262260437 8.406999588012695,-0.14100000262260437z"></path></g></g><g style="display: block;" transform="matrix(0.7009999752044678,0,0,0.7009999752044678,17.437000274658203,22.589000701904297)" opacity="1"><g opacity="1" transform="matrix(2,0,0,2,0,0)"><path fill="rgb(34,34,34)" fill-opacity="1" d=" M10.987000465393066,-2.7209999561309814 C8.5,-6.084000110626221 4.504000186920166,-8.265999794006348 0,-8.265999794006348 C0,-8.265999794006348 0,-8.265999794006348 0,-8.265999794006348 C-4.504000186920166,-8.265999794006348 -8.5,-6.084000110626221 -10.987000465393066,-2.7209999561309814 C-10.987000465393066,-2.7209999561309814 -9.956999778747559,-1.6929999589920044 -9.956999778747559,-1.6929999589920044 C-7.742000102996826,-4.801000118255615 -4.107999801635742,-6.828000068664551 0,-6.828000068664551 C4.107999801635742,-6.828000068664551 7.743000030517578,-4.801000118255615 9.958000183105469,-1.6920000314712524 C9.958000183105469,-1.6920000314712524 10.987000465393066,-2.7209999561309814 10.987000465393066,-2.7209999561309814z"></path></g></g></g></svg>